<svg xmlns="http://www.w3.org/2000/svg" xmlns:xlink="http://www.w3.org/1999/xlink" xmlns:lucid="lucid" width="2801" height="1576"><g transform="translate(-829 143)" lucid:page-tab-id="0_0"><path d="M500-500h3500v2000H500z" fill="#f2f3f5"/><path d="M1914.16 861.8h747.56v88h-747.56z" fill="none"/><use xlink:href="#a" transform="matrix(1,0,0,1,1934.1567863624412,884.7970494204374) translate(0 32.5)"/><use xlink:href="#b" transform="matrix(1,0,0,1,1934.1567863624412,884.7970494204374) translate(238.44444444444446 32.5)"/><use xlink:href="#c" transform="matrix(1,0,0,1,1934.1567863624412,884.7970494204374) translate(474.7777777777778 32.5)"/><path d="M1385.48 905.8a40 40 0 0 1 40-40h288.68a40 40 0 0 1 40 40 40 40 0 0 1-40 40h-288.68a40 40 0 0 1-40-40z" fill="#fff"/><use xlink:href="#d" transform="matrix(1,0,0,1,1385.4801196957746,865.7970494204372) translate(16.166666666666657 48.5)"/><use xlink:href="#e" transform="matrix(1,0,0,1,1385.4801196957746,865.7970494204372) translate(119.72222222222223 48.5)"/><use xlink:href="#f" transform="matrix(1,0,0,1,1385.4801196957746,865.7970494204372) translate(250.83333333333334 48.5)"/><path d="M1914.16 979.8h1700.12v88.02H1914.16z" fill="none"/><use xlink:href="#g" transform="matrix(1,0,0,1,1934.1567863624412,1002.8070494204375) translate(0 32.5)"/><use xlink:href="#h" transform="matrix(1,0,0,1,1934.1567863624412,1002.8070494204375) translate(319.44444444444446 32.5)"/><use xlink:href="#i" transform="matrix(1,0,0,1,1934.1567863624412,1002.8070494204375) translate(507.22222222222223 32.5)"/><use xlink:href="#j" transform="matrix(1,0,0,1,1934.1567863624412,1002.8070494204375) translate(720.2222222222223 32.5)"/><use xlink:href="#k" transform="matrix(1,0,0,1,1934.1567863624412,1002.8070494204375) translate(977.2222222222223 32.5)"/><use xlink:href="#l" transform="matrix(1,0,0,1,1934.1567863624412,1002.8070494204375) translate(1052.5555555555557 32.5)"/><use xlink:href="#m" transform="matrix(1,0,0,1,1934.1567863624412,1002.8070494204375) translate(1259 32.5)"/><use xlink:href="#n" transform="matrix(1,0,0,1,1934.1567863624412,1002.8070494204375) translate(1436.5555555555557 32.5)"/><use xlink:href="#o" transform="matrix(1,0,0,1,1934.1567863624412,1002.8070494204375) translate(1540.1111111111113 32.5)"/><path d="M1756.66 905.85l.8.02 3.16.2 3.02.3 2.9.44 2.78.54 2.7.64 2.66.74 2.6.84 2.55.95 2.53 1.08 2.53 1.2 2.52 1.3 2.55 1.48 2.6 1.65 2.64 1.85 2.74 2.07 2.85 2.36 3 2.7 3.22 3.17 3.55 3.8 4.06 4.7 5 6.33 7.8 10.8 21.25 30.46 5 6.32 4.06 4.7 3.55 3.8 3.22 3.16 3 2.7 2.85 2.37 2.74 2.07 2.65 1.84 2.6 1.65 2.55 1.47 2.52 1.33 2.53 1.2 2.53 1.05 2.56.95 2.6.85 2.64.73 2.7.64 2.8.53 2.9.43 3 .3 3.16.2.82.03" stroke="#008a0e" stroke-width="5" stroke-linejoin="round" fill="none"/><path d="M1756.77 903.38l-.1 4.95-2.7-.06.2-2.47-.2-2.48zM1914.16 1021.34v4.95h-2.57v-4.96z" stroke="#008a0e" stroke-width=".05" fill="#008a0e"/><path d="M1914.16 743.8h866.12v88h-866.12z" fill="none"/><use xlink:href="#p" transform="matrix(1,0,0,1,1934.1567863624412,766.7870494204374) translate(0 32.5)"/><use xlink:href="#q" transform="matrix(1,0,0,1,1934.1567863624412,766.7870494204374) translate(593.3333333333333 32.5)"/><path d="M1756.66 905.8h155" stroke="#ffe342" stroke-width="5" stroke-linejoin="round" fill="none"/><path d="M1756.72 908.28h-2.76l.2-2.48-.2-2.47h2.76zM1914.16 908.28h-2.57v-4.95h2.56z" stroke="#ffe342" stroke-width=".05" fill="#ffe342"/><path d="M1756.66 905.75l.8-.02 3.16-.2 3.02-.3 2.9-.44 2.78-.54 2.7-.64 2.66-.74 2.6-.84 2.55-.95 2.53-1.07 2.53-1.2 2.52-1.32 2.55-1.46 2.6-1.64 2.64-1.85 2.74-2.07 2.85-2.36 3-2.7 3.22-3.17 3.55-3.8 4.06-4.7 5-6.32 7.8-10.8 21.25-30.46 5-6.33 4.06-4.7 3.55-3.8 3.22-3.16 3-2.7 2.85-2.37 2.74-2.06 2.65-1.84 2.6-1.65 2.55-1.47 2.52-1.32 2.53-1.2 2.53-1.06 2.56-.95 2.6-.84 2.64-.73 2.7-.64 2.8-.53 2.9-.42 3-.32 3.16-.2.82-.02" stroke="#635dff" stroke-width="5" stroke-linejoin="round" fill="none"/><path d="M1756.77 908.22l-2.8.06.2-2.48-.2-2.47 2.7-.06zM1914.16 790.27h-2.57v-4.95h2.56z" stroke="#635dff" stroke-width=".05" fill="#635dff"/><path d="M1914.16 861.8h747.56v88h-747.56z" fill="none"/><use xlink:href="#a" transform="matrix(1,0,0,1,1934.1567863624412,884.7970494204374) translate(0 32.5)"/><use xlink:href="#b" transform="matrix(1,0,0,1,1934.1567863624412,884.7970494204374) translate(238.44444444444446 32.5)"/><use xlink:href="#c" transform="matrix(1,0,0,1,1934.1567863624412,884.7970494204374) translate(474.7777777777778 32.5)"/><path d="M1385.48 905.8a40 40 0 0 1 40-40h288.68a40 40 0 0 1 40 40 40 40 0 0 1-40 40h-288.68a40 40 0 0 1-40-40z" fill="#fff"/><use xlink:href="#d" transform="matrix(1,0,0,1,1385.4801196957746,865.7970494204372) translate(16.166666666666657 48.5)"/><use xlink:href="#e" transform="matrix(1,0,0,1,1385.4801196957746,865.7970494204372) translate(119.72222222222223 48.5)"/><use xlink:href="#f" transform="matrix(1,0,0,1,1385.4801196957746,865.7970494204372) translate(250.83333333333334 48.5)"/><path d="M1914.16 979.8h1700.12v88.02H1914.16z" fill="none"/><use xlink:href="#g" transform="matrix(1,0,0,1,1934.1567863624412,1002.8070494204375) translate(0 32.5)"/><use xlink:href="#h" transform="matrix(1,0,0,1,1934.1567863624412,1002.8070494204375) translate(319.44444444444446 32.5)"/><use xlink:href="#i" transform="matrix(1,0,0,1,1934.1567863624412,1002.8070494204375) translate(507.22222222222223 32.5)"/><use xlink:href="#j" transform="matrix(1,0,0,1,1934.1567863624412,1002.8070494204375) translate(720.2222222222223 32.5)"/><use xlink:href="#k" transform="matrix(1,0,0,1,1934.1567863624412,1002.8070494204375) translate(977.2222222222223 32.5)"/><use xlink:href="#l" transform="matrix(1,0,0,1,1934.1567863624412,1002.8070494204375) translate(1052.5555555555557 32.5)"/><use xlink:href="#m" transform="matrix(1,0,0,1,1934.1567863624412,1002.8070494204375) translate(1259 32.5)"/><use xlink:href="#n" transform="matrix(1,0,0,1,1934.1567863624412,1002.8070494204375) translate(1436.5555555555557 32.5)"/><use xlink:href="#o" transform="matrix(1,0,0,1,1934.1567863624412,1002.8070494204375) translate(1540.1111111111113 32.5)"/><path d="M1756.66 905.85l.8.02 3.16.2 3.02.3 2.9.44 2.78.54 2.7.64 2.66.74 2.6.84 2.55.95 2.53 1.08 2.53 1.2 2.52 1.3 2.55 1.48 2.6 1.65 2.64 1.85 2.74 2.07 2.85 2.36 3 2.7 3.22 3.17 3.55 3.8 4.06 4.7 5 6.33 7.8 10.8 21.25 30.46 5 6.32 4.06 4.7 3.55 3.8 3.22 3.16 3 2.7 2.85 2.37 2.74 2.07 2.65 1.84 2.6 1.65 2.55 1.47 2.52 1.33 2.53 1.2 2.53 1.05 2.56.95 2.6.85 2.64.73 2.7.64 2.8.53 2.9.43 3 .3 3.16.2.82.03" stroke="#008a0e" stroke-width="5" stroke-linejoin="round" fill="none"/><path d="M1756.77 903.38l-.1 4.95-2.7-.06.2-2.47-.2-2.48zM1914.16 1021.34v4.95h-2.57v-4.96z" stroke="#008a0e" stroke-width=".05" fill="#008a0e"/><path d="M1914.16 743.8h866.12v88h-866.12z" fill="none"/><use xlink:href="#p" transform="matrix(1,0,0,1,1934.1567863624412,766.7870494204374) translate(0 32.5)"/><use xlink:href="#q" transform="matrix(1,0,0,1,1934.1567863624412,766.7870494204374) translate(593.3333333333333 32.5)"/><path d="M1756.66 905.8h155" stroke="#ffe342" stroke-width="5" stroke-linejoin="round" fill="none"/><path d="M1756.72 908.28h-2.76l.2-2.48-.2-2.47h2.76zM1914.16 908.28h-2.57v-4.95h2.56z" stroke="#ffe342" stroke-width=".05" fill="#ffe342"/><path d="M1756.66 905.75l.8-.02 3.16-.2 3.02-.3 2.9-.44 2.78-.54 2.7-.64 2.66-.74 2.6-.84 2.55-.95 2.53-1.07 2.53-1.2 2.52-1.32 2.55-1.46 2.6-1.64 2.64-1.85 2.74-2.07 2.85-2.36 3-2.7 3.22-3.17 3.55-3.8 4.06-4.7 5-6.32 7.8-10.8 21.25-30.46 5-6.33 4.06-4.7 3.55-3.8 3.22-3.16 3-2.7 2.85-2.37 2.74-2.06 2.65-1.84 2.6-1.65 2.55-1.47 2.52-1.32 2.53-1.2 2.53-1.06 2.56-.95 2.6-.84 2.64-.73 2.7-.64 2.8-.53 2.9-.42 3-.32 3.16-.2.82-.02" stroke="#635dff" stroke-width="5" stroke-linejoin="round" fill="none"/><path d="M1756.77 908.22l-2.8.06.2-2.48-.2-2.47 2.7-.06zM1914.16 790.27h-2.57v-4.95h2.56z" stroke="#635dff" stroke-width=".05" fill="#635dff"/><path d="M1979.9 345.7h436.9v88.02h-436.9z" fill="none"/><use xlink:href="#r" transform="matrix(1,0,0,1,1999.9118667595694,368.71072389377014) translate(0 32.5)"/><path d="M1979.9 110.82h714.58v88H1979.9z" fill="none"/><use xlink:href="#s" transform="matrix(1,0,0,1,1999.9118667595694,133.81572389377015) translate(0 32.5)"/><use xlink:href="#t" transform="matrix(1,0,0,1,1999.9118667595694,133.81572389377015) translate(197.55555555555557 32.5)"/><use xlink:href="#u" transform="matrix(1,0,0,1,1999.9118667595694,133.81572389377015) translate(295.11111111111114 32.5)"/><use xlink:href="#v" transform="matrix(1,0,0,1,1999.9118667595694,133.81572389377015) translate(521.4444444444446 32.5)"/><path d="M1579.9 155.38a40 40 0 0 1 40-40h160a40 40 0 0 1 40 40 40 40 0 0 1-40 40h-160a40 40 0 0 1-40-40z" fill="#fff"/><use xlink:href="#w" transform="matrix(1,0,0,1,1579.9118667595696,115.37822389377015) translate(43.44444444444444 48.5)"/><path d="M1822.4 155.47l.86.05 1.62.17 1.6.23 1.56.3 1.56.36 1.55.43 1.54.5 1.54.57 1.56.66 1.58.74 1.6.84 1.63.94 1.68 1.06 1.7 1.2 1.77 1.33 1.84 1.52 1.9 1.7 2 1.97 2.12 2.26 2.25 2.6 2.4 3.05 2.6 3.6 2.87 4.3 3.17 5.24 3.6 6.55 4.22 8.5 5.2 11.77 7.42 18.82 32.55 90.4 5.2 11.76 4.22 8.5 3.6 6.56 3.17 5.25 2.84 4.3 2.6 3.6 2.42 3.03 2.25 2.6 2.12 2.26 2 1.97 1.92 1.7 1.83 1.53 1.77 1.34 1.7 1.2 1.67 1.05 1.64.94 1.6.84 1.58.74 1.56.65 1.55.57 1.55.5 1.55.44 1.55.37 1.58.3 1.6.24 1.6.18.85.05" stroke="#fc9432" stroke-width="5" stroke-linejoin="round" fill="none"/><path d="M1822.53 152.96l-.1 4.95-2.7-.05.18-2.47-.18-2.48zM1979.9 387.24v4.95h-2.55v-4.96z" stroke="#fc9432" stroke-width=".05" fill="#fc9432"/><path d="M1979.9-6.07h726.5v86.9h-726.5z" fill="none"/><use xlink:href="#x" transform="matrix(1,0,0,1,1999.9118667595694,16.930723893770164) translate(0 37.171875)"/><use xlink:href="#y" transform="matrix(1,0,0,1,1999.9118667595694,16.930723893770164) translate(149.8046875 37.171875)"/><use xlink:href="#z" transform="matrix(1,0,0,1,1999.9118667595694,16.930723893770164) translate(372.8515625 37.171875)"/><use xlink:href="#A" transform="matrix(1,0,0,1,1999.9118667595694,16.930723893770164) translate(528.59375 37.171875)"/><path d="M1979.9 228.83h837.23v86.88H1979.9z" fill="none"/><use xlink:href="#B" transform="matrix(1,0,0,1,1999.9118667595694,251.82572389377015) translate(0 37.171875)"/><use xlink:href="#C" transform="matrix(1,0,0,1,1999.9118667595694,251.82572389377015) translate(267.20703125 37.171875)"/><use xlink:href="#D" transform="matrix(1,0,0,1,1999.9118667595694,251.82572389377015) translate(481.73828125 37.171875)"/><use xlink:href="#E" transform="matrix(1,0,0,1,1999.9118667595694,251.82572389377015) translate(638.359375 37.171875)"/><path d="M1979.9-122.95h301.3v86.88h-301.3z" fill="none"/><use xlink:href="#F" transform="matrix(1,0,0,1,1999.9118667595694,-99.95427610622983) translate(0 37.171875)"/><path d="M1822.4 155.44h.86l3.18.2 3.03.33 2.92.43 2.8.54 2.73.64 2.67.74 2.6.85 2.58.96 2.55 1.07 2.54 1.2 2.55 1.33 2.56 1.48 2.6 1.66 2.68 1.86 2.75 2.08 2.87 2.38 3.03 2.73 3.26 3.2 3.6 3.84 4.13 4.8 5.14 6.5 8.6 11.94 19.14 27.23 5.15 6.52 4.13 4.8 3.6 3.83 3.26 3.2 3.03 2.72 2.87 2.38 2.75 2.1 2.66 1.84 2.6 1.64 2.57 1.5 2.55 1.32 2.54 1.2 2.54 1.06 2.57.96 2.62.85 2.67.74 2.72.64 2.8.55 2.93.43 3.03.32 3.18.2.85.02" stroke="#e81313" stroke-width="5" stroke-linejoin="round" fill="none"/><path d="M1822.53 152.96l-.1 4.95-2.7-.05.18-2.47-.18-2.48zM1979.9 269.8v4.94h-2.55v-4.95z" stroke="#e81313" stroke-width=".05" fill="#e81313"/><path d="M1822.4 155.37l155-.54" stroke="#d916a8" stroke-width="5" stroke-linejoin="round" fill="none"/><path d="M1822.5 157.85h-2.78l.2-2.47-.2-2.47h2.75zM1979.9 157.3h-2.54l-.02-4.95h2.57z" stroke="#d916a8" stroke-width=".05" fill="#d916a8"/><path d="M1822.4 155.33l.83-.02 3.15-.18 3-.32 2.9-.43 2.8-.53 2.7-.63 2.65-.73 2.6-.85 2.55-.95 2.54-1.06 2.52-1.18 2.53-1.32 2.55-1.48 2.6-1.64 2.64-1.84 2.73-2.08 2.84-2.35 3-2.7 3.24-3.17 3.55-3.8 4.06-4.7 5-6.32 7.8-10.8 21.23-30.45 5-6.33 4.06-4.7 3.55-3.8 3.23-3.16 3-2.7 2.85-2.37 2.73-2.08 2.65-1.84 2.6-1.65 2.55-1.47 2.53-1.32 2.52-1.2 2.54-1.06 2.56-.95 2.6-.84 2.64-.75 2.7-.63 2.8-.54 2.9-.42 3-.32 3.15-.2.8-.02" stroke="#ffe342" stroke-width="5" stroke-linejoin="round" fill="none"/><path d="M1822.53 157.8l-2.8.06.18-2.48-.18-2.47 2.7-.05zM1979.9 39.85h-2.55V34.9h2.56z" stroke="#ffe342" stroke-width=".05" fill="#ffe342"/><path d="M1822.4 155.3l.85-.06 1.62-.17 1.58-.23 1.57-.3 1.56-.36 1.54-.44 1.55-.5 1.54-.57 1.57-.66 1.58-.73 1.6-.83 1.62-.94 1.66-1.06 1.7-1.2 1.77-1.33 1.83-1.5 1.9-1.72 2-1.96 2.13-2.25 2.24-2.6 2.4-3.05 2.6-3.58 2.86-4.3 3.16-5.23 3.6-6.54 4.2-8.48 5.2-11.7 7.34-18.7L1920-17.1l5.2-11.7 4.2-8.5 3.6-6.54 3.16-5.23 2.85-4.3 2.62-3.58 2.4-3.04 2.25-2.6 2.1-2.24 2-1.97 1.92-1.73 1.82-1.5 1.76-1.35 1.7-1.2 1.68-1.05 1.62-.93 1.6-.84 1.57-.74 1.56-.66 1.56-.57 1.54-.5 1.55-.44 1.55-.37 1.57-.3 1.6-.23 1.6-.17.84-.06" stroke="#635dff" stroke-width="5" stroke-linejoin="round" fill="none"/><path d="M1822.53 157.8l-2.8.06.18-2.48-.18-2.47 2.7-.05zM1979.9-77.04h-2.55V-82h2.56z" stroke="#635dff" stroke-width=".05" fill="#635dff"/><path d="M1979.9 345.7h436.9v88.02h-436.9z" fill="none"/><use xlink:href="#r" transform="matrix(1,0,0,1,1999.9118667595694,368.71072389377014) translate(0 32.5)"/><path d="M1979.9 110.82h714.58v88H1979.9z" fill="none"/><use xlink:href="#s" transform="matrix(1,0,0,1,1999.9118667595694,133.81572389377015) translate(0 32.5)"/><use xlink:href="#t" transform="matrix(1,0,0,1,1999.9118667595694,133.81572389377015) translate(197.55555555555557 32.5)"/><use xlink:href="#u" transform="matrix(1,0,0,1,1999.9118667595694,133.81572389377015) translate(295.11111111111114 32.5)"/><use xlink:href="#v" transform="matrix(1,0,0,1,1999.9118667595694,133.81572389377015) translate(521.4444444444446 32.5)"/><path d="M1579.9 155.38a40 40 0 0 1 40-40h160a40 40 0 0 1 40 40 40 40 0 0 1-40 40h-160a40 40 0 0 1-40-40z" fill="#fff"/><use xlink:href="#w" transform="matrix(1,0,0,1,1579.9118667595696,115.37822389377015) translate(43.44444444444444 48.5)"/><path d="M1822.4 155.47l.86.05 1.62.17 1.6.23 1.56.3 1.56.36 1.55.43 1.54.5 1.54.57 1.56.66 1.58.74 1.6.84 1.63.94 1.68 1.06 1.7 1.2 1.77 1.33 1.84 1.52 1.9 1.7 2 1.97 2.12 2.26 2.25 2.6 2.4 3.05 2.6 3.6 2.87 4.3 3.17 5.24 3.6 6.55 4.22 8.5 5.2 11.77 7.42 18.82 32.55 90.4 5.2 11.76 4.22 8.5 3.6 6.56 3.17 5.25 2.84 4.3 2.6 3.6 2.42 3.03 2.25 2.6 2.12 2.26 2 1.97 1.92 1.7 1.83 1.53 1.77 1.34 1.7 1.2 1.67 1.05 1.64.94 1.6.84 1.58.74 1.56.65 1.55.57 1.55.5 1.55.44 1.55.37 1.58.3 1.6.24 1.6.18.85.05" stroke="#fc9432" stroke-width="5" stroke-linejoin="round" fill="none"/><path d="M1822.53 152.96l-.1 4.95-2.7-.05.18-2.47-.18-2.48zM1979.9 387.24v4.95h-2.55v-4.96z" stroke="#fc9432" stroke-width=".05" fill="#fc9432"/><path d="M1979.9-6.07h726.5v86.9h-726.5z" fill="none"/><use xlink:href="#x" transform="matrix(1,0,0,1,1999.9118667595694,16.930723893770164) translate(0 37.171875)"/><use xlink:href="#y" transform="matrix(1,0,0,1,1999.9118667595694,16.930723893770164) translate(149.8046875 37.171875)"/><use xlink:href="#z" transform="matrix(1,0,0,1,1999.9118667595694,16.930723893770164) translate(372.8515625 37.171875)"/><use xlink:href="#A" transform="matrix(1,0,0,1,1999.9118667595694,16.930723893770164) translate(528.59375 37.171875)"/><path d="M1979.9 228.83h837.23v86.88H1979.9z" fill="none"/><use xlink:href="#B" transform="matrix(1,0,0,1,1999.9118667595694,251.82572389377015) translate(0 37.171875)"/><use xlink:href="#C" transform="matrix(1,0,0,1,1999.9118667595694,251.82572389377015) translate(267.20703125 37.171875)"/><use xlink:href="#D" transform="matrix(1,0,0,1,1999.9118667595694,251.82572389377015) translate(481.73828125 37.171875)"/><use xlink:href="#E" transform="matrix(1,0,0,1,1999.9118667595694,251.82572389377015) translate(638.359375 37.171875)"/><path d="M1979.9-122.95h301.3v86.88h-301.3z" fill="none"/><use xlink:href="#F" transform="matrix(1,0,0,1,1999.9118667595694,-99.95427610622983) translate(0 37.171875)"/><path d="M1822.4 155.44h.86l3.18.2 3.03.33 2.92.43 2.8.54 2.73.64 2.67.74 2.6.85 2.58.96 2.55 1.07 2.54 1.2 2.55 1.33 2.56 1.48 2.6 1.66 2.68 1.86 2.75 2.08 2.87 2.38 3.03 2.73 3.26 3.2 3.6 3.84 4.13 4.8 5.14 6.5 8.6 11.94 19.14 27.23 5.15 6.52 4.13 4.8 3.6 3.83 3.26 3.2 3.03 2.72 2.87 2.38 2.75 2.1 2.66 1.84 2.6 1.64 2.57 1.5 2.55 1.32 2.54 1.2 2.54 1.06 2.57.96 2.62.85 2.67.74 2.72.64 2.8.55 2.93.43 3.03.32 3.18.2.85.02" stroke="#e81313" stroke-width="5" stroke-linejoin="round" fill="none"/><path d="M1822.53 152.96l-.1 4.95-2.7-.05.18-2.47-.18-2.48zM1979.9 269.8v4.94h-2.55v-4.95z" stroke="#e81313" stroke-width=".05" fill="#e81313"/><path d="M1822.4 155.37l155-.54" stroke="#d916a8" stroke-width="5" stroke-linejoin="round" fill="none"/><path d="M1822.5 157.85h-2.78l.2-2.47-.2-2.47h2.75zM1979.9 157.3h-2.54l-.02-4.95h2.57z" stroke="#d916a8" stroke-width=".05" fill="#d916a8"/><path d="M1822.4 155.33l.83-.02 3.15-.18 3-.32 2.9-.43 2.8-.53 2.7-.63 2.65-.73 2.6-.85 2.55-.95 2.54-1.06 2.52-1.18 2.53-1.32 2.55-1.48 2.6-1.64 2.64-1.84 2.73-2.08 2.84-2.35 3-2.7 3.24-3.17 3.55-3.8 4.06-4.7 5-6.32 7.8-10.8 21.23-30.45 5-6.33 4.06-4.7 3.55-3.8 3.23-3.16 3-2.7 2.85-2.37 2.73-2.08 2.65-1.84 2.6-1.65 2.55-1.47 2.53-1.32 2.52-1.2 2.54-1.06 2.56-.95 2.6-.84 2.64-.75 2.7-.63 2.8-.54 2.9-.42 3-.32 3.15-.2.8-.02" stroke="#ffe342" stroke-width="5" stroke-linejoin="round" fill="none"/><path d="M1822.53 157.8l-2.8.06.18-2.48-.18-2.47 2.7-.05zM1979.9 39.85h-2.55V34.9h2.56z" stroke="#ffe342" stroke-width=".05" fill="#ffe342"/><path d="M1822.4 155.3l.85-.06 1.62-.17 1.58-.23 1.57-.3 1.56-.36 1.54-.44 1.55-.5 1.54-.57 1.57-.66 1.58-.73 1.6-.83 1.62-.94 1.66-1.06 1.7-1.2 1.77-1.33 1.83-1.5 1.9-1.72 2-1.96 2.13-2.25 2.24-2.6 2.4-3.05 2.6-3.58 2.86-4.3 3.16-5.23 3.6-6.54 4.2-8.48 5.2-11.7 7.34-18.7L1920-17.1l5.2-11.7 4.2-8.5 3.6-6.54 3.16-5.23 2.85-4.3 2.62-3.58 2.4-3.04 2.25-2.6 2.1-2.24 2-1.97 1.92-1.73 1.82-1.5 1.76-1.35 1.7-1.2 1.68-1.05 1.62-.93 1.6-.84 1.57-.74 1.56-.66 1.56-.57 1.54-.5 1.55-.44 1.55-.37 1.57-.3 1.6-.23 1.6-.17.84-.06" stroke="#635dff" stroke-width="5" stroke-linejoin="round" fill="none"/><path d="M1822.53 157.8l-2.8.06.18-2.48-.18-2.47 2.7-.05zM1979.9-77.04h-2.55V-82h2.56z" stroke="#635dff" stroke-width=".05" fill="#635dff"/><path d="M1945.3 577.68l3.96.08 5.84.37 5.34.56 4.93.7 4.62.9 4.36 1.02 4.18 1.16 4.05 1.32 3.96 1.48 3.96 1.66 4.03 1.9 4.23 2.2 4.6 2.68 5.48 3.48 8.73 6.1 19.15 13.76 5.47 3.5 4.62 2.65 4.22 2.22 4.03 1.9 3.95 1.66 3.98 1.48 4.04 1.32 4.18 1.16 4.37 1.03 4.62.88 4.94.73 5.33.55 5.85.37 3.96.08" stroke="#e81313" stroke-width="5" stroke-linejoin="round" fill="none"/><path d="M1945.42 575.2l-.1 4.95-2.7-.05.2-2.48-.2-2.47zM2102.8 634.16v4.95h-2.56v-4.94z" stroke="#e81313" stroke-width=".05" fill="#e81313"/><path d="M1452.02 577.62a40 40 0 0 1 40-40h410.8a40 40 0 0 1 40 40 40 40 0 0 1-40 40H1492a40 40 0 0 1-40-40z" fill="#fff"/><use xlink:href="#G" transform="matrix(1,0,0,1,1452.0179778706809,537.6232238937702) translate(16.111111111111114 48.5)"/><use xlink:href="#H" transform="matrix(1,0,0,1,1452.0179778706809,537.6232238937702) translate(135.88888888888889 48.5)"/><use xlink:href="#I" transform="matrix(1,0,0,1,1452.0179778706809,537.6232238937702) translate(359.66666666666663 48.5)"/><path d="M2102.8 474.62h472.57v88H2102.8z" fill="none"/><use xlink:href="#J" transform="matrix(1,0,0,1,2122.8057556484587,497.61822389377016) translate(0 32.5)"/><use xlink:href="#K" transform="matrix(1,0,0,1,2122.8057556484587,497.61822389377016) translate(184.22222222222223 32.5)"/><use xlink:href="#L" transform="matrix(1,0,0,1,2122.8057556484587,497.61822389377016) translate(304 32.5)"/><path d="M2102.8 592.63h595.57v88H2102.8z" fill="none"/><use xlink:href="#M" transform="matrix(1,0,0,1,2122.8057556484587,615.6282238937702) translate(0 32.5)"/><use xlink:href="#N" transform="matrix(1,0,0,1,2122.8057556484587,615.6282238937702) translate(344.88888888888886 32.5)"/><path d="M1945.3 577.58l3.96-.1 5.84-.35 5.34-.56 4.93-.73 4.62-.88 4.36-1.02 4.18-1.17 4.05-1.3 3.96-1.5 3.96-1.66 4.03-1.9 4.23-2.2 4.6-2.66 5.48-3.48 8.73-6.1 19.15-13.77 5.47-3.5 4.62-2.65 4.22-2.2 4.03-1.9 3.95-1.68 3.98-1.48 4.04-1.32 4.18-1.17 4.37-1 4.62-.9 4.94-.72 5.33-.56 5.85-.36 3.96-.1" stroke="#635dff" stroke-width="5" stroke-linejoin="round" fill="none"/><path d="M1945.42 580.05l-2.8.06.2-2.48-.2-2.46 2.7-.06zM2102.8 521.1h-2.56v-4.95h2.57z" stroke="#635dff" stroke-width=".05" fill="#635dff"/><path d="M1945.3 577.68l3.96.08 5.84.37 5.34.56 4.93.7 4.62.9 4.36 1.02 4.18 1.16 4.05 1.32 3.96 1.48 3.96 1.66 4.03 1.9 4.23 2.2 4.6 2.68 5.48 3.48 8.73 6.1 19.15 13.76 5.47 3.5 4.62 2.65 4.22 2.22 4.03 1.9 3.95 1.66 3.98 1.48 4.04 1.32 4.18 1.16 4.37 1.03 4.62.88 4.94.73 5.33.55 5.85.37 3.96.08" stroke="#e81313" stroke-width="5" stroke-linejoin="round" fill="none"/><path d="M1945.42 575.2l-.1 4.95-2.7-.05.2-2.48-.2-2.47zM2102.8 634.16v4.95h-2.56v-4.94z" stroke="#e81313" stroke-width=".05" fill="#e81313"/><path d="M1452.02 577.62a40 40 0 0 1 40-40h410.8a40 40 0 0 1 40 40 40 40 0 0 1-40 40H1492a40 40 0 0 1-40-40z" fill="#fff"/><use xlink:href="#G" transform="matrix(1,0,0,1,1452.0179778706809,537.6232238937702) translate(16.111111111111114 48.5)"/><use xlink:href="#H" transform="matrix(1,0,0,1,1452.0179778706809,537.6232238937702) translate(135.88888888888889 48.5)"/><use xlink:href="#I" transform="matrix(1,0,0,1,1452.0179778706809,537.6232238937702) translate(359.66666666666663 48.5)"/><path d="M2102.8 474.62h472.57v88H2102.8z" fill="none"/><use xlink:href="#J" transform="matrix(1,0,0,1,2122.8057556484587,497.61822389377016) translate(0 32.5)"/><use xlink:href="#K" transform="matrix(1,0,0,1,2122.8057556484587,497.61822389377016) translate(184.22222222222223 32.5)"/><use xlink:href="#L" transform="matrix(1,0,0,1,2122.8057556484587,497.61822389377016) translate(304 32.5)"/><path d="M2102.8 592.63h595.57v88H2102.8z" fill="none"/><use xlink:href="#M" transform="matrix(1,0,0,1,2122.8057556484587,615.6282238937702) translate(0 32.5)"/><use xlink:href="#N" transform="matrix(1,0,0,1,2122.8057556484587,615.6282238937702) translate(344.88888888888886 32.5)"/><path d="M1945.3 577.58l3.96-.1 5.84-.35 5.34-.56 4.93-.73 4.62-.88 4.36-1.02 4.18-1.17 4.05-1.3 3.96-1.5 3.96-1.66 4.03-1.9 4.23-2.2 4.6-2.66 5.48-3.48 8.73-6.1 19.15-13.77 5.47-3.5 4.62-2.65 4.22-2.2 4.03-1.9 3.95-1.68 3.98-1.48 4.04-1.32 4.18-1.17 4.37-1 4.62-.9 4.94-.72 5.33-.56 5.85-.36 3.96-.1" stroke="#635dff" stroke-width="5" stroke-linejoin="round" fill="none"/><path d="M1945.42 580.05l-2.8.06.2-2.48-.2-2.46 2.7-.06zM2102.8 521.1h-2.56v-4.95h2.57z" stroke="#635dff" stroke-width=".05" fill="#635dff"/><path d="M1169.55 102.2a6 6 0 0 1 6-6h265.6a6 6 0 0 1 6 6v108a6 6 0 0 1-6 6h-265.6a6 6 0 0 1-6-6z" stroke="#3a414a" stroke-width="3" fill="#fff"/><use xlink:href="#O" transform="matrix(1,0,0,1,1181.5462044097299,108.18822389377013) translate(10.555555555555543 56)"/><use xlink:href="#P" transform="matrix(1,0,0,1,1181.5462044097299,108.18822389377013) translate(108.11111111111111 56)"/><path d="M1450.14 156.2l124.43.73" stroke="#3a414a" stroke-width="3" fill="none"/><path d="M1450.2 154.72l-.03 2.95h-1.53v-2.96z" stroke="#3a414a" stroke-width=".05" fill="#3a414a"/><path d="M1582.73 156.98l-12.96 7.56.1-15.28z" stroke="#3a414a" stroke-width="3" fill="#3a414a"/><path d="M1033.17 538.86a6 6 0 0 1 6-6h268a6 6 0 0 1 6 6v77.54a6 6 0 0 1-6 6h-268a6 6 0 0 1-6-6z" stroke="#3a414a" stroke-width="3" fill="#fff"/><use xlink:href="#Q" transform="matrix(1,0,0,1,1045.1693455892744,544.8607238937702) translate(12.6111111111111 40.25)"/><path d="M1316.17 577.63h124.74" stroke="#3a414a" stroke-width="3" stroke-linejoin="round" fill="none"/><path d="M1316.2 579.1h-1.53v-2.95h1.54z" stroke="#3a414a" stroke-width=".05" fill="#3a414a"/><path d="M1449.07 577.63l-12.9 7.63V570z" stroke="#3a414a" stroke-width="3" fill="#3a414a"/><path d="M1133.34 1112.55l3.27-.07 4.56-.28 4.37-.46 4.22-.62 4.1-.78 3.97-.94 3.9-1.1 3.83-1.23 3.8-1.4 3.75-1.6 3.76-1.76 3.77-1.96 3.8-2.2 3.86-2.45 3.93-2.74 4.05-3.08 4.2-3.5 4.4-3.96 4.7-4.58 5.04-5.38 5.57-6.46 6.37-8.07 7.83-10.8 11.77-17.8 36.74-58.08 7.84-10.8 6.38-8.06 5.58-6.47 5.04-5.38 4.68-4.6 4.4-3.96 4.22-3.5 4.05-3.07 3.93-2.74 3.86-2.46 3.8-2.2 3.75-1.96 3.76-1.77 3.77-1.57 3.8-1.4 3.83-1.26 3.9-1.1 3.98-.92 4.1-.78 4.2-.62 2.6-.28" stroke="#3a414a" stroke-width="3" stroke-linejoin="round" fill="none"/><path d="M1133.4 1114.03l-1.57.03v-2.95l1.52-.02z" stroke="#3a414a" stroke-width=".05" fill="#3a414a"/><path d="M1382.54 905.95l-12.5 8.3-.8-15.26z" stroke="#3a414a" stroke-width="3" fill="#3a414a"/><path d="M2856.94 522.82a6 6 0 0 1 6-6h240a6 6 0 0 1 6 6v198.3c-42.1-34.12-68.3-34.12-84.17-34.12-25.2 0-58.72 34.1-83.9 34.1-15.64 0-42.1 0-83.93-34.1z" stroke="#3a414a" stroke-width="3" fill="#54c45e"/><path d="M2870.94 540.85a6 6 0 0 1 6-6h240a6 6 0 0 1 6 6v198.3c-42.1-34.13-68.3-34.13-84.17-34.13-25.2 0-58.72 34.12-83.9 34.12-15.64 0-42.1 0-83.93-34.12z" stroke="#3a414a" stroke-width="3" fill="#54c45e"/><path d="M2884.94 558.87a6 6 0 0 1 6-6h240a6 6 0 0 1 6 6v198.3c-42.1-34.12-68.3-34.12-84.17-34.12-25.2 0-58.72 34.1-83.9 34.1-15.64 0-42.1 0-83.93-34.1z" stroke="#3a414a" stroke-width="3" fill="#54c45e"/><use xlink:href="#R" transform="matrix(1,0,0,1,2889.938533426236,557.87422389377) translate(10.222222222222229 40.5)"/><use xlink:href="#S" transform="matrix(1,0,0,1,2889.938533426236,557.87422389377) translate(127.66666666666667 40.5)"/><use xlink:href="#T" transform="matrix(1,0,0,1,2889.938533426236,557.87422389377) translate(15.611111111111114 88.5)"/><use xlink:href="#U" transform="matrix(1,0,0,1,2889.938533426236,557.87422389377) translate(142.05555555555557 88.5)"/><use xlink:href="#V" transform="matrix(1,0,0,1,2889.938533426236,557.87422389377) translate(51.16666666666666 136.5)"/><path d="M2853.32 626l-2.8.92-73.56-220.35h2.94v-.53zm-80.37-240.76h-2.93v.53l-76.47-229.06 2.8-.92z" stroke="#3a414a" stroke-width=".05" fill="#3a414a"/><path d="M2696.36 155.8l-1.88.64v-4.78l.45-.15z" fill="#3a414a"/><path stroke="#3a414a" stroke-width=".05" fill="#3a414a"/><path d="M2854.5 634.2l-11.33-9.83 14.5-4.84z" fill="#3a414a"/><path d="M2855.42 636.95l-15.16-13.16 19.4-6.48zm-9.33-12l7.5 6.5 2.07-9.7z" stroke="#3a414a" stroke-width=".05" fill="#3a414a"/><g><use xlink:href="#W" transform="matrix(1,0,0,1,2770.019706265742,385.2403072271034) translate(0 14.222222222222223)"/></g><path d="M2854.33 648.14l-171.42 728.18-2.86-.67 171.42-728.18z" stroke="#3a414a" stroke-width=".05" fill="#3a414a"/><path d="M2682.92 1376.28l-1.04 4.42-.75-.17v-4.67z" fill="#3a414a"/><path stroke="#3a414a" stroke-width=".05" fill="#3a414a"/><path d="M2859.24 654.18l-14.87-3.5 10.4-10.82z" fill="#3a414a"/><path d="M2861.42 656.2l-19.9-4.68 13.9-14.48zm-14.2-6.36l9.84 2.3-2.96-9.46z" stroke="#3a414a" stroke-width=".05" fill="#3a414a"/><path d="M2851.8 647.6l-69.53 139.5-2.64-1.3 69.53-139.52z" stroke="#3a414a" stroke-width=".05" fill="#3a414a"/><path d="M2782.28 787.07l-2 4.03v-5.03z" fill="#3a414a"/><path stroke="#3a414a" stroke-width=".05" fill="#3a414a"/><path d="M2855.2 654.6l-13.67-6.82 12.6-8.15z" fill="#3a414a"/><path d="M2856.86 657.07l-18.3-9.12 16.86-10.9zm-12.36-9.46l9.04 4.52-.7-9.9z" stroke="#3a414a" stroke-width=".05" fill="#3a414a"/><path d="M1325.1 1254.43a40 40 0 0 1 40-40h525.25a40 40 0 0 1 40 40v10a40 40 0 0 1-40 40H1365.1a40 40 0 0 1-40-40z" fill="#fff"/><g><use xlink:href="#X" transform="matrix(1,0,0,1,1330.1123245568858,1219.4283749471042) translate(15.888888888888857 49.71875)"/><use xlink:href="#Y" transform="matrix(1,0,0,1,1330.1123245568858,1219.4283749471042) translate(164.44444444444443 49.71875)"/><use xlink:href="#Z" transform="matrix(1,0,0,1,1330.1123245568858,1219.4283749471042) translate(363.88888888888886 49.71875)"/></g><path d="M2090.34 1333.44h590.8v88h-590.8z" fill="none"/><g><use xlink:href="#aa" transform="matrix(1,0,0,1,2110.3445467791084,1356.4383749471044) translate(0 32.5)"/><use xlink:href="#ab" transform="matrix(1,0,0,1,2110.3445467791084,1356.4383749471044) translate(82 32.5)"/><use xlink:href="#ac" transform="matrix(1,0,0,1,2110.3445467791084,1356.4383749471044) translate(201.55555555555554 32.5)"/><use xlink:href="#ad" transform="matrix(1,0,0,1,2110.3445467791084,1356.4383749471044) translate(442.22222222222223 32.5)"/></g><path d="M1932.85 1259.48l.8.02 3.16.2 3.02.32 2.9.42 2.8.54 2.7.63 2.65.75 2.6.84 2.55.94 2.53 1.07 2.53 1.2 2.53 1.32 2.56 1.47 2.6 1.64 2.63 1.84 2.73 2.08 2.84 2.35 3 2.72 3.24 3.16 3.56 3.8 4.06 4.7 5 6.33 7.8 10.8 21.25 30.47 5 6.32 4.06 4.7 3.55 3.8 3.23 3.16 3 2.7 2.86 2.36 2.73 2.08 2.64 1.84 2.6 1.64 2.54 1.48 2.53 1.32 2.54 1.2 2.53 1.05 2.56.95 2.6.85 2.64.74 2.7.63 2.8.53 2.9.43 3 .32 3.16.2h.8" stroke="#fc9432" stroke-width="5" stroke-linejoin="round" fill="none"/><path d="M1932.96 1257l-.1 4.96-2.5-.05-.02-4.94zM2090.34 1374.97v4.95h-2.56v-4.95z" stroke="#fc9432" stroke-width=".05" fill="#fc9432"/><path d="M2090.34 1215.43h361.46v88h-361.46z" fill="none"/><g><use xlink:href="#ae" transform="matrix(1,0,0,1,2110.3445467791084,1238.4283749471042) translate(0 32.5)"/></g><path d="M2090.34 1097.42h426.24v88h-426.24z" fill="none"/><g><use xlink:href="#af" transform="matrix(1,0,0,1,2110.3445467791084,1120.4183749471044) translate(0 32.5)"/></g><path d="M1932.85 1259.43h155" stroke="#008a0e" stroke-width="5" stroke-linejoin="round" fill="none"/><path d="M1932.9 1261.9h-2.56v-4.94h2.57zM2090.34 1261.9h-2.56v-4.94h2.56z" stroke="#008a0e" stroke-width=".05" fill="#008a0e"/><path d="M1932.85 1259.38l.8-.02 3.16-.2 3.02-.3 2.9-.44 2.8-.53 2.7-.64 2.65-.74 2.6-.85 2.55-.95 2.53-1.06 2.53-1.2 2.53-1.3 2.56-1.5 2.6-1.63 2.63-1.84 2.73-2.1 2.84-2.34 3-2.7 3.24-3.18 3.56-3.8 4.06-4.7 5-6.32 7.8-10.8 21.25-30.46 5-6.33 4.06-4.7 3.55-3.8 3.23-3.16 3-2.7 2.86-2.36 2.73-2.07 2.64-1.84 2.6-1.64 2.54-1.5 2.53-1.3 2.54-1.2 2.53-1.07 2.56-.95 2.6-.84 2.64-.74 2.7-.63 2.8-.54 2.9-.42 3-.3 3.16-.2.8-.03" stroke="#635dff" stroke-width="5" stroke-linejoin="round" fill="none"/><path d="M1932.96 1261.86l-2.62.05v-4.94l2.52-.05zM2090.34 1143.9h-2.56v-4.95h2.56z" stroke="#635dff" stroke-width=".05" fill="#635dff"/><path d="M1325.1 1254.43a40 40 0 0 1 40-40h525.25a40 40 0 0 1 40 40v10a40 40 0 0 1-40 40H1365.1a40 40 0 0 1-40-40z" fill="#fff"/><g><use xlink:href="#X" transform="matrix(1,0,0,1,1330.1123245568858,1219.4283749471042) translate(15.888888888888857 49.71875)"/><use xlink:href="#Y" transform="matrix(1,0,0,1,1330.1123245568858,1219.4283749471042) translate(164.44444444444443 49.71875)"/><use xlink:href="#Z" transform="matrix(1,0,0,1,1330.1123245568858,1219.4283749471042) translate(363.88888888888886 49.71875)"/></g><path d="M2090.34 1333.44h590.8v88h-590.8z" fill="none"/><g><use xlink:href="#aa" transform="matrix(1,0,0,1,2110.3445467791084,1356.4383749471044) translate(0 32.5)"/><use xlink:href="#ab" transform="matrix(1,0,0,1,2110.3445467791084,1356.4383749471044) translate(82 32.5)"/><use xlink:href="#ac" transform="matrix(1,0,0,1,2110.3445467791084,1356.4383749471044) translate(201.55555555555554 32.5)"/><use xlink:href="#ad" transform="matrix(1,0,0,1,2110.3445467791084,1356.4383749471044) translate(442.22222222222223 32.5)"/></g><path d="M1932.85 1259.48l.8.02 3.16.2 3.02.32 2.9.42 2.8.54 2.7.63 2.65.75 2.6.84 2.55.94 2.53 1.07 2.53 1.2 2.53 1.32 2.56 1.47 2.6 1.64 2.63 1.84 2.73 2.08 2.84 2.35 3 2.72 3.24 3.16 3.56 3.8 4.06 4.7 5 6.33 7.8 10.8 21.25 30.47 5 6.32 4.06 4.7 3.55 3.8 3.23 3.16 3 2.7 2.86 2.36 2.73 2.08 2.64 1.84 2.6 1.64 2.54 1.48 2.53 1.32 2.54 1.2 2.53 1.05 2.56.95 2.6.85 2.64.74 2.7.63 2.8.53 2.9.43 3 .32 3.16.2h.8" stroke="#fc9432" stroke-width="5" stroke-linejoin="round" fill="none"/><path d="M1932.96 1257l-.1 4.96-2.5-.05-.02-4.94zM2090.34 1374.97v4.95h-2.56v-4.95z" stroke="#fc9432" stroke-width=".05" fill="#fc9432"/><path d="M2090.34 1215.43h361.46v88h-361.46z" fill="none"/><g><use xlink:href="#ae" transform="matrix(1,0,0,1,2110.3445467791084,1238.4283749471042) translate(0 32.5)"/></g><path d="M2090.34 1097.42h426.24v88h-426.24z" fill="none"/><g><use xlink:href="#af" transform="matrix(1,0,0,1,2110.3445467791084,1120.4183749471044) translate(0 32.5)"/></g><path d="M1932.85 1259.43h155" stroke="#008a0e" stroke-width="5" stroke-linejoin="round" fill="none"/><path d="M1932.9 1261.9h-2.56v-4.94h2.57zM2090.34 1261.9h-2.56v-4.94h2.56z" stroke="#008a0e" stroke-width=".05" fill="#008a0e"/><path d="M1932.85 1259.38l.8-.02 3.16-.2 3.02-.3 2.9-.44 2.8-.53 2.7-.64 2.65-.74 2.6-.85 2.55-.95 2.53-1.06 2.53-1.2 2.53-1.3 2.56-1.5 2.6-1.63 2.63-1.84 2.73-2.1 2.84-2.34 3-2.7 3.24-3.18 3.56-3.8 4.06-4.7 5-6.32 7.8-10.8 21.25-30.46 5-6.33 4.06-4.7 3.55-3.8 3.23-3.16 3-2.7 2.86-2.36 2.73-2.07 2.64-1.84 2.6-1.64 2.54-1.5 2.53-1.3 2.54-1.2 2.53-1.07 2.56-.95 2.6-.84 2.64-.74 2.7-.63 2.8-.54 2.9-.42 3-.3 3.16-.2.8-.03" stroke="#635dff" stroke-width="5" stroke-linejoin="round" fill="none"/><path d="M1932.96 1261.86l-2.62.05v-4.94l2.52-.05zM2090.34 1143.9h-2.56v-4.95h2.56z" stroke="#635dff" stroke-width=".05" fill="#635dff"/><path d="M850.34 1073.82a6 6 0 0 1 6-6h268a6 6 0 0 1 6 6v77.53a6 6 0 0 1-6 6h-268a6 6 0 0 1-6-6z" stroke="#3a414a" stroke-width="3" fill="#fff"/><g><use xlink:href="#ag" transform="matrix(1,0,0,1,862.334783957327,1079.8170494204373) translate(30.44444444444443 40.25)"/></g><path d="M1133.34 1112.62l2.4.05 3.7.23 3.54.37 3.4.5 3.3.63 3.2.75 3.13.88 3.08 1 3.03 1.12 3 1.26 3 1.42 3 1.57 3.03 1.74 3.07 1.95 3.14 2.17 3.24 2.46 3.36 2.78 3.55 3.2 3.78 3.72 4.14 4.4 4.67 5.43 5.57 7.07 7.73 10.67 31.87 46.7 5.6 7.06 4.66 5.42 4.14 4.42 3.8 3.7 3.54 3.2 3.37 2.8 3.24 2.45 3.14 2.18 3.08 1.95 3.02 1.75 3 1.57 3 1.4 3 1.27 3.03 1.12 3.07 1 3.12.87 3.2.75 3.3.63 3.4.5h.07" stroke="#3a414a" stroke-width="3" stroke-linejoin="round" fill="none"/><path d="M1133.4 1111.14l-.06 2.95-1.5-.04v-2.95z" stroke="#3a414a" stroke-width=".05" fill="#3a414a"/><path d="M1322.17 1259.25l-13.35 6.83.93-15.24z" stroke="#3a414a" stroke-width="3" fill="#3a414a"/><path d="M2770.05 632.9l-70.08 5.1-.2-2.95 70.28-5.1zm70.58-5.12l-60.7 4.4v-2.95l60.5-4.4z" stroke="#3a414a" stroke-width=".05" fill="#3a414a"/><path d="M2700 638l-1.63.1v-2.95l1.43-.1z" fill="#3a414a"/><path stroke="#3a414a" stroke-width=".05" fill="#3a414a"/><path d="M2848.66 625.72l-12.32 8.55-1.1-15.23z" fill="#3a414a"/><path d="M2851.55 625.5l-16.5 11.45-1.48-20.4zm-13.93 6.08l8.15-5.65-8.88-4.42z" stroke="#3a414a" stroke-width=".05" fill="#3a414a"/><g><use xlink:href="#W" transform="matrix(1,0,0,1,2770.048827490253,620.4015570209647) translate(0 14.222222222222223)"/></g><defs><path d="M230 0l2-204L168 0h-37L68-204 70 0H24v-248h70l56 185 57-185h69V0h-46" id="ah"/><path d="M238-95c0 69-44 99-111 99C63 4 22-25 22-93v-155h51v151c-1 38 19 59 55 60 90 1 49-130 58-211h52v153" id="ai"/><path d="M24 0v-248h52v208h133V0H24" id="aj"/><path d="M136-208V0H84v-208H4v-40h212v40h-80" id="ak"/><path d="M24 0v-248h52V0H24" id="al"/><path d="M14-72v-43h91v43H14" id="am"/><path d="M24 0v-248h195v40H76v63h132v40H76v65h150V0H24" id="an"/><g id="a"><use transform="matrix(0.1111111111111111,0,0,0.1111111111111111,0,0)" xlink:href="#ah"/><use transform="matrix(0.1111111111111111,0,0,0.1111111111111111,33.22222222222222,0)" xlink:href="#ai"/><use transform="matrix(0.1111111111111111,0,0,0.1111111111111111,62,0)" xlink:href="#aj"/><use transform="matrix(0.1111111111111111,0,0,0.1111111111111111,83.33333333333333,0)" xlink:href="#ak"/><use transform="matrix(0.1111111111111111,0,0,0.1111111111111111,107.66666666666666,0)" xlink:href="#al"/><use transform="matrix(0.1111111111111111,0,0,0.1111111111111111,118.77777777777777,0)" xlink:href="#am"/><use transform="matrix(0.1111111111111111,0,0,0.1111111111111111,132,0)" xlink:href="#ak"/><use transform="matrix(0.1111111111111111,0,0,0.1111111111111111,156.33333333333334,0)" xlink:href="#al"/><use transform="matrix(0.1111111111111111,0,0,0.1111111111111111,167.44444444444446,0)" xlink:href="#ah"/><use transform="matrix(0.1111111111111111,0,0,0.1111111111111111,200.66666666666669,0)" xlink:href="#an"/></g><path d="M199 0l-22-63H83L61 0H9l90-248h61L250 0h-51zm-33-102l-36-108c-10 38-24 72-36 108h72" id="ao"/><path d="M175 0L67-191c6 58 2 128 3 191H24v-248h59L193-55c-6-58-2-129-3-193h46V0h-61" id="ap"/><path d="M140-251c80 0 125 45 125 126S219 4 139 4C58 4 15-44 15-125s44-126 125-126zm-1 214c52 0 73-35 73-88 0-50-21-86-72-86-52 0-73 35-73 86s22 88 72 88" id="aq"/><g id="b"><use transform="matrix(0.1111111111111111,0,0,0.1111111111111111,0,0)" xlink:href="#ao"/><use transform="matrix(0.1111111111111111,0,0,0.1111111111111111,25.777777777777775,0)" xlink:href="#ak"/><use transform="matrix(0.1111111111111111,0,0,0.1111111111111111,50.11111111111111,0)" xlink:href="#ak"/><use transform="matrix(0.1111111111111111,0,0,0.1111111111111111,74.44444444444444,0)" xlink:href="#an"/><use transform="matrix(0.1111111111111111,0,0,0.1111111111111111,101.11111111111111,0)" xlink:href="#ap"/><use transform="matrix(0.1111111111111111,0,0,0.1111111111111111,129.88888888888889,0)" xlink:href="#ak"/><use transform="matrix(0.1111111111111111,0,0,0.1111111111111111,154.22222222222223,0)" xlink:href="#al"/><use transform="matrix(0.1111111111111111,0,0,0.1111111111111111,165.33333333333334,0)" xlink:href="#aq"/><use transform="matrix(0.1111111111111111,0,0,0.1111111111111111,196.44444444444446,0)" xlink:href="#ap"/></g><path d="M275 0h-61l-44-196L126 0H64L0-248h53L97-49l45-199h58l43 199 44-199h52" id="ar"/><path d="M240-174c0 40-23 61-54 70L253 0h-59l-57-94H76V0H24v-248c93 4 217-23 216 74zM76-134c48-2 112 12 112-38 0-48-66-32-112-35v73" id="as"/><path d="M195 0l-88-114-31 24V0H24v-248h52v113l112-113h60L142-143 257 0h-62" id="at"/><path d="M169-182c-1-43-94-46-97-3 18 66 151 10 154 114 3 95-165 93-204 36-6-8-10-19-12-30l50-8c3 46 112 56 116 5-17-69-150-10-154-114-4-87 153-88 188-35 5 8 8 18 10 28" id="au"/><g id="c"><use transform="matrix(0.1111111111111111,0,0,0.1111111111111111,0,0)" xlink:href="#ap"/><use transform="matrix(0.1111111111111111,0,0,0.1111111111111111,28.777777777777775,0)" xlink:href="#an"/><use transform="matrix(0.1111111111111111,0,0,0.1111111111111111,55.44444444444444,0)" xlink:href="#ak"/><use transform="matrix(0.1111111111111111,0,0,0.1111111111111111,79.77777777777777,0)" xlink:href="#ar"/><use transform="matrix(0.1111111111111111,0,0,0.1111111111111111,117.44444444444444,0)" xlink:href="#aq"/><use transform="matrix(0.1111111111111111,0,0,0.1111111111111111,148.55555555555554,0)" xlink:href="#as"/><use transform="matrix(0.1111111111111111,0,0,0.1111111111111111,177.33333333333331,0)" xlink:href="#at"/><use transform="matrix(0.1111111111111111,0,0,0.1111111111111111,206.1111111111111,0)" xlink:href="#au"/></g><path d="M25-224v-37h50v37H25zM25 0v-190h50V0H25" id="av"/><path d="M220-157c-53 9-28 100-34 157h-49v-107c1-27-5-49-29-50C55-147 81-57 75 0H25l-1-190h47c2 12-1 28 3 38 10-53 101-56 108 0 13-22 24-43 59-42 82 1 51 116 57 194h-49v-107c-1-25-5-48-29-50" id="aw"/><path d="M185-48c-13 30-37 53-82 52C43 2 14-33 14-96s30-98 90-98c62 0 83 45 84 108H66c0 31 8 55 39 56 18 0 30-7 34-22zm-45-69c5-46-57-63-70-21-2 6-4 13-4 21h74" id="ax"/><g id="d"><use transform="matrix(0.1111111111111111,0,0,0.1111111111111111,0,0)" xlink:href="#ak"/><use transform="matrix(0.1111111111111111,0,0,0.1111111111111111,23.555555555555554,0)" xlink:href="#av"/><use transform="matrix(0.1111111111111111,0,0,0.1111111111111111,34.666666666666664,0)" xlink:href="#aw"/><use transform="matrix(0.1111111111111111,0,0,0.1111111111111111,70.22222222222223,0)" xlink:href="#ax"/></g><path d="M135-150c-39-12-60 13-60 57V0H25l-1-190h47c2 13-1 29 3 40 6-28 27-53 61-41v41" id="ay"/><path d="M137-138c1-29-70-34-71-4 15 46 118 7 119 86 1 83-164 76-172 9l43-7c4 19 20 25 44 25 33 8 57-30 24-41C81-84 22-81 20-136c-2-80 154-74 161-7" id="az"/><g id="e"><use transform="matrix(0.1111111111111111,0,0,0.1111111111111111,0,0)" xlink:href="#au"/><use transform="matrix(0.1111111111111111,0,0,0.1111111111111111,26.666666666666664,0)" xlink:href="#ax"/><use transform="matrix(0.1111111111111111,0,0,0.1111111111111111,48.888888888888886,0)" xlink:href="#ay"/><use transform="matrix(0.1111111111111111,0,0,0.1111111111111111,64.44444444444444,0)" xlink:href="#av"/><use transform="matrix(0.1111111111111111,0,0,0.1111111111111111,75.55555555555556,0)" xlink:href="#ax"/><use transform="matrix(0.1111111111111111,0,0,0.1111111111111111,97.77777777777777,0)" xlink:href="#az"/></g><path d="M24-248c120-7 223 5 221 122C244-46 201 0 124 0H24v-248zM76-40c74 7 117-18 117-86 0-67-45-88-117-82v168" id="aA"/><path d="M133-34C117-15 103 5 69 4 32 3 11-16 11-54c-1-60 55-63 116-61 1-26-3-47-28-47-18 1-26 9-28 27l-52-2c7-38 36-58 82-57s74 22 75 68l1 82c-1 14 12 18 25 15v27c-30 8-71 5-69-32zm-48 3c29 0 43-24 42-57-32 0-66-3-65 30 0 17 8 27 23 27" id="aB"/><path d="M115-3C79 11 28 4 28-45v-112H4v-33h27l15-45h31v45h36v33H77v99c-1 23 16 31 38 25v30" id="aC"/><g id="f"><use transform="matrix(0.1111111111111111,0,0,0.1111111111111111,0,0)" xlink:href="#aA"/><use transform="matrix(0.1111111111111111,0,0,0.1111111111111111,28.777777777777775,0)" xlink:href="#aB"/><use transform="matrix(0.1111111111111111,0,0,0.1111111111111111,51,0)" xlink:href="#ay"/><use transform="matrix(0.1111111111111111,0,0,0.1111111111111111,66.55555555555556,0)" xlink:href="#aC"/><use transform="matrix(0.1111111111111111,0,0,0.1111111111111111,79.77777777777777,0)" xlink:href="#aB"/></g><path d="M186 0v-106H76V0H24v-248h52v99h110v-99h50V0h-50" id="aD"/><path d="M110-194c64 0 96 36 96 99 0 64-35 99-97 99-61 0-95-36-95-99 0-62 34-99 96-99zm-1 164c35 0 45-28 45-65 0-40-10-65-43-65-34 0-45 26-45 65 0 36 10 65 43 65" id="aE"/><path d="M190-63c-7 42-38 67-86 67-59 0-84-38-90-98-12-110 154-137 174-36l-49 2c-2-19-15-32-35-32-30 0-35 28-38 64-6 74 65 87 74 30" id="aF"/><path d="M88-194c31-1 46 15 58 34l-1-101h50l1 261h-48c-2-10 0-23-3-31C134-8 116 4 84 4 32 4 16-41 15-95c0-56 19-97 73-99zm17 164c33 0 40-30 41-66 1-37-9-64-41-64s-38 30-39 65c0 43 13 65 39 65" id="aG"/><g id="g"><use transform="matrix(0.1111111111111111,0,0,0.1111111111111111,0,0)" xlink:href="#aD"/><use transform="matrix(0.1111111111111111,0,0,0.1111111111111111,28.777777777777775,0)" xlink:href="#ax"/><use transform="matrix(0.1111111111111111,0,0,0.1111111111111111,51,0)" xlink:href="#aC"/><use transform="matrix(0.1111111111111111,0,0,0.1111111111111111,64.22222222222223,0)" xlink:href="#ax"/><use transform="matrix(0.1111111111111111,0,0,0.1111111111111111,86.44444444444446,0)" xlink:href="#ay"/><use transform="matrix(0.1111111111111111,0,0,0.1111111111111111,102.00000000000001,0)" xlink:href="#aE"/><use transform="matrix(0.1111111111111111,0,0,0.1111111111111111,126.33333333333336,0)" xlink:href="#az"/><use transform="matrix(0.1111111111111111,0,0,0.1111111111111111,148.55555555555557,0)" xlink:href="#aF"/><use transform="matrix(0.1111111111111111,0,0,0.1111111111111111,170.7777777777778,0)" xlink:href="#ax"/><use transform="matrix(0.1111111111111111,0,0,0.1111111111111111,193.00000000000003,0)" xlink:href="#aG"/><use transform="matrix(0.1111111111111111,0,0,0.1111111111111111,217.33333333333337,0)" xlink:href="#aB"/><use transform="matrix(0.1111111111111111,0,0,0.1111111111111111,239.5555555555556,0)" xlink:href="#az"/><use transform="matrix(0.1111111111111111,0,0,0.1111111111111111,261.7777777777778,0)" xlink:href="#aC"/><use transform="matrix(0.1111111111111111,0,0,0.1111111111111111,275.00000000000006,0)" xlink:href="#av"/><use transform="matrix(0.1111111111111111,0,0,0.1111111111111111,286.11111111111114,0)" xlink:href="#aF"/></g><path d="M135-194c53 0 70 44 70 98 0 56-19 98-73 100-31 1-45-17-59-34 3 33 2 69 2 105H25l-1-265h48c2 10 0 23 3 31 11-24 29-35 60-35zM114-30c33 0 39-31 40-66 0-38-9-64-40-64-56 0-55 130 0 130" id="aH"/><path d="M25 0v-261h50V0H25" id="aI"/><g id="h"><use transform="matrix(0.1111111111111111,0,0,0.1111111111111111,0,0)" xlink:href="#ak"/><use transform="matrix(0.1111111111111111,0,0,0.1111111111111111,21.333333333333332,0)" xlink:href="#ax"/><use transform="matrix(0.1111111111111111,0,0,0.1111111111111111,43.55555555555556,0)" xlink:href="#aw"/><use transform="matrix(0.1111111111111111,0,0,0.1111111111111111,79.11111111111111,0)" xlink:href="#aH"/><use transform="matrix(0.1111111111111111,0,0,0.1111111111111111,103.44444444444444,0)" xlink:href="#aE"/><use transform="matrix(0.1111111111111111,0,0,0.1111111111111111,127.77777777777777,0)" xlink:href="#ay"/><use transform="matrix(0.1111111111111111,0,0,0.1111111111111111,143.33333333333331,0)" xlink:href="#aB"/><use transform="matrix(0.1111111111111111,0,0,0.1111111111111111,165.55555555555554,0)" xlink:href="#aI"/></g><path d="M147 0H94L2-248h55l64 206c17-72 42-137 63-206h54" id="aJ"/><path d="M135-194c87-1 58 113 63 194h-50c-7-57 23-157-34-157-59 0-34 97-39 157H25l-1-190h47c2 12-1 28 3 38 12-26 28-41 61-42" id="aK"/><g id="i"><use transform="matrix(0.1111111111111111,0,0,0.1111111111111111,0,0)" xlink:href="#aJ"/><use transform="matrix(0.1111111111111111,0,0,0.1111111111111111,24.444444444444443,0)" xlink:href="#aB"/><use transform="matrix(0.1111111111111111,0,0,0.1111111111111111,46.666666666666664,0)" xlink:href="#ay"/><use transform="matrix(0.1111111111111111,0,0,0.1111111111111111,62.22222222222222,0)" xlink:href="#av"/><use transform="matrix(0.1111111111111111,0,0,0.1111111111111111,73.33333333333333,0)" xlink:href="#aB"/><use transform="matrix(0.1111111111111111,0,0,0.1111111111111111,95.55555555555554,0)" xlink:href="#aC"/><use transform="matrix(0.1111111111111111,0,0,0.1111111111111111,108.77777777777777,0)" xlink:href="#av"/><use transform="matrix(0.1111111111111111,0,0,0.1111111111111111,119.88888888888889,0)" xlink:href="#aE"/><use transform="matrix(0.1111111111111111,0,0,0.1111111111111111,144.22222222222223,0)" xlink:href="#aK"/><use transform="matrix(0.1111111111111111,0,0,0.1111111111111111,168.55555555555557,0)" xlink:href="#aB"/><use transform="matrix(0.1111111111111111,0,0,0.1111111111111111,190.7777777777778,0)" xlink:href="#aI"/></g><path d="M85 4C-2 5 27-109 22-190h50c7 57-23 150 33 157 60-5 35-97 40-157h50l1 190h-47c-2-12 1-28-3-38-12 25-28 42-61 42" id="aL"/><g id="j"><use transform="matrix(0.1111111111111111,0,0,0.1111111111111111,0,0)" xlink:href="#ao"/><use transform="matrix(0.1111111111111111,0,0,0.1111111111111111,28.777777777777775,0)" xlink:href="#aL"/><use transform="matrix(0.1111111111111111,0,0,0.1111111111111111,53.11111111111111,0)" xlink:href="#aC"/><use transform="matrix(0.1111111111111111,0,0,0.1111111111111111,66.33333333333333,0)" xlink:href="#aE"/><use transform="matrix(0.1111111111111111,0,0,0.1111111111111111,90.66666666666666,0)" xlink:href="#ax"/><use transform="matrix(0.1111111111111111,0,0,0.1111111111111111,112.88888888888889,0)" xlink:href="#aK"/><use transform="matrix(0.1111111111111111,0,0,0.1111111111111111,137.22222222222223,0)" xlink:href="#aF"/><use transform="matrix(0.1111111111111111,0,0,0.1111111111111111,159.44444444444446,0)" xlink:href="#aE"/><use transform="matrix(0.1111111111111111,0,0,0.1111111111111111,183.7777777777778,0)" xlink:href="#aG"/><use transform="matrix(0.1111111111111111,0,0,0.1111111111111111,208.11111111111114,0)" xlink:href="#ax"/><use transform="matrix(0.1111111111111111,0,0,0.1111111111111111,230.33333333333337,0)" xlink:href="#ay"/></g><path d="M76-208v77h127v40H76V0H24v-248h183v40H76" id="aM"/><g id="k"><use transform="matrix(0.1111111111111111,0,0,0.1111111111111111,0,0)" xlink:href="#aM"/><use transform="matrix(0.1111111111111111,0,0,0.1111111111111111,24.333333333333332,0)" xlink:href="#aE"/><use transform="matrix(0.1111111111111111,0,0,0.1111111111111111,48.666666666666664,0)" xlink:href="#ay"/></g><path d="M195-6C206 82 75 100 31 46c-4-6-6-13-8-21l49-6c3 16 16 24 34 25 40 0 42-37 40-79-11 22-30 35-61 35-53 0-70-43-70-97 0-56 18-96 73-97 30 0 46 14 59 34l2-30h47zm-90-29c32 0 41-27 41-63 0-35-9-62-40-62-32 0-39 29-40 63 0 36 9 62 39 62" id="aN"/><path d="M123 10C108 53 80 86 19 72V37c35 8 53-11 59-39L3-190h52l48 148c12-52 28-100 44-148h51" id="aO"/><g id="l"><use transform="matrix(0.1111111111111111,0,0,0.1111111111111111,0,0)" xlink:href="#al"/><use transform="matrix(0.1111111111111111,0,0,0.1111111111111111,11.11111111111111,0)" xlink:href="#ay"/><use transform="matrix(0.1111111111111111,0,0,0.1111111111111111,26.666666666666664,0)" xlink:href="#ay"/><use transform="matrix(0.1111111111111111,0,0,0.1111111111111111,42.22222222222222,0)" xlink:href="#ax"/><use transform="matrix(0.1111111111111111,0,0,0.1111111111111111,64.44444444444444,0)" xlink:href="#aN"/><use transform="matrix(0.1111111111111111,0,0,0.1111111111111111,88.77777777777777,0)" xlink:href="#aL"/><use transform="matrix(0.1111111111111111,0,0,0.1111111111111111,113.1111111111111,0)" xlink:href="#aI"/><use transform="matrix(0.1111111111111111,0,0,0.1111111111111111,124.22222222222221,0)" xlink:href="#aB"/><use transform="matrix(0.1111111111111111,0,0,0.1111111111111111,146.44444444444443,0)" xlink:href="#ay"/><use transform="matrix(0.1111111111111111,0,0,0.1111111111111111,161.99999999999997,0)" xlink:href="#aI"/><use transform="matrix(0.1111111111111111,0,0,0.1111111111111111,173.1111111111111,0)" xlink:href="#aO"/></g><g id="m"><use transform="matrix(0.1111111111111111,0,0,0.1111111111111111,0,0)" xlink:href="#au"/><use transform="matrix(0.1111111111111111,0,0,0.1111111111111111,26.666666666666664,0)" xlink:href="#aB"/><use transform="matrix(0.1111111111111111,0,0,0.1111111111111111,48.888888888888886,0)" xlink:href="#aw"/><use transform="matrix(0.1111111111111111,0,0,0.1111111111111111,84.44444444444444,0)" xlink:href="#aH"/><use transform="matrix(0.1111111111111111,0,0,0.1111111111111111,108.77777777777777,0)" xlink:href="#aI"/><use transform="matrix(0.1111111111111111,0,0,0.1111111111111111,119.88888888888889,0)" xlink:href="#ax"/><use transform="matrix(0.1111111111111111,0,0,0.1111111111111111,142.11111111111111,0)" xlink:href="#aG"/></g><g id="n"><use transform="matrix(0.1111111111111111,0,0,0.1111111111111111,0,0)" xlink:href="#ak"/><use transform="matrix(0.1111111111111111,0,0,0.1111111111111111,23.555555555555554,0)" xlink:href="#av"/><use transform="matrix(0.1111111111111111,0,0,0.1111111111111111,34.666666666666664,0)" xlink:href="#aw"/><use transform="matrix(0.1111111111111111,0,0,0.1111111111111111,70.22222222222223,0)" xlink:href="#ax"/></g><g id="o"><use transform="matrix(0.1111111111111111,0,0,0.1111111111111111,0,0)" xlink:href="#au"/><use transform="matrix(0.1111111111111111,0,0,0.1111111111111111,26.666666666666664,0)" xlink:href="#ax"/><use transform="matrix(0.1111111111111111,0,0,0.1111111111111111,48.888888888888886,0)" xlink:href="#ay"/><use transform="matrix(0.1111111111111111,0,0,0.1111111111111111,64.44444444444444,0)" xlink:href="#av"/><use transform="matrix(0.1111111111111111,0,0,0.1111111111111111,75.55555555555556,0)" xlink:href="#ax"/><use transform="matrix(0.1111111111111111,0,0,0.1111111111111111,97.77777777777777,0)" xlink:href="#az"/></g><path d="M24-248c93 1 206-16 204 79-1 75-69 88-152 82V0H24v-248zm52 121c47 0 100 7 100-41 0-47-54-39-100-39v80" id="aP"/><path d="M67-125c0 53 21 87 73 88 37 1 54-22 65-47l45 17C233-25 199 4 140 4 58 4 20-42 15-125 8-235 124-281 211-232c18 10 29 29 36 50l-46 12c-8-25-30-41-62-41-52 0-71 34-72 86" id="aQ"/><g id="p"><use transform="matrix(0.1111111111111111,0,0,0.1111111111111111,0,0)" xlink:href="#al"/><use transform="matrix(0.1111111111111111,0,0,0.1111111111111111,11.11111111111111,0)" xlink:href="#ap"/><use transform="matrix(0.1111111111111111,0,0,0.1111111111111111,39.888888888888886,0)" xlink:href="#ak"/><use transform="matrix(0.1111111111111111,0,0,0.1111111111111111,64.22222222222221,0)" xlink:href="#an"/><use transform="matrix(0.1111111111111111,0,0,0.1111111111111111,90.88888888888889,0)" xlink:href="#as"/><use transform="matrix(0.1111111111111111,0,0,0.1111111111111111,119.66666666666666,0)" xlink:href="#aP"/><use transform="matrix(0.1111111111111111,0,0,0.1111111111111111,146.33333333333331,0)" xlink:href="#aq"/><use transform="matrix(0.1111111111111111,0,0,0.1111111111111111,177.44444444444443,0)" xlink:href="#aj"/><use transform="matrix(0.1111111111111111,0,0,0.1111111111111111,201.77777777777777,0)" xlink:href="#ao"/><use transform="matrix(0.1111111111111111,0,0,0.1111111111111111,227.55555555555554,0)" xlink:href="#ak"/><use transform="matrix(0.1111111111111111,0,0,0.1111111111111111,251.88888888888889,0)" xlink:href="#al"/><use transform="matrix(0.1111111111111111,0,0,0.1111111111111111,263,0)" xlink:href="#aq"/><use transform="matrix(0.1111111111111111,0,0,0.1111111111111111,294.1111111111111,0)" xlink:href="#ap"/><use transform="matrix(0.1111111111111111,0,0,0.1111111111111111,322.88888888888886,0)" xlink:href="#am"/><use transform="matrix(0.1111111111111111,0,0,0.1111111111111111,336.1111111111111,0)" xlink:href="#aP"/><use transform="matrix(0.1111111111111111,0,0,0.1111111111111111,362.77777777777777,0)" xlink:href="#as"/><use transform="matrix(0.1111111111111111,0,0,0.1111111111111111,391.55555555555554,0)" xlink:href="#an"/><use transform="matrix(0.1111111111111111,0,0,0.1111111111111111,418.22222222222223,0)" xlink:href="#aA"/><use transform="matrix(0.1111111111111111,0,0,0.1111111111111111,447,0)" xlink:href="#al"/><use transform="matrix(0.1111111111111111,0,0,0.1111111111111111,458.1111111111111,0)" xlink:href="#aQ"/><use transform="matrix(0.1111111111111111,0,0,0.1111111111111111,486.88888888888886,0)" xlink:href="#ak"/><use transform="matrix(0.1111111111111111,0,0,0.1111111111111111,511.2222222222222,0)" xlink:href="#al"/><use transform="matrix(0.1111111111111111,0,0,0.1111111111111111,522.3333333333333,0)" xlink:href="#aq"/><use transform="matrix(0.1111111111111111,0,0,0.1111111111111111,553.4444444444443,0)" xlink:href="#ap"/></g><g id="q"><use transform="matrix(0.1111111111111111,0,0,0.1111111111111111,0,0)" xlink:href="#ap"/><use transform="matrix(0.1111111111111111,0,0,0.1111111111111111,28.777777777777775,0)" xlink:href="#an"/><use transform="matrix(0.1111111111111111,0,0,0.1111111111111111,55.44444444444444,0)" xlink:href="#ak"/><use transform="matrix(0.1111111111111111,0,0,0.1111111111111111,79.77777777777777,0)" xlink:href="#ar"/><use transform="matrix(0.1111111111111111,0,0,0.1111111111111111,117.44444444444444,0)" xlink:href="#aq"/><use transform="matrix(0.1111111111111111,0,0,0.1111111111111111,148.55555555555554,0)" xlink:href="#as"/><use transform="matrix(0.1111111111111111,0,0,0.1111111111111111,177.33333333333331,0)" xlink:href="#at"/><use transform="matrix(0.1111111111111111,0,0,0.1111111111111111,206.1111111111111,0)" xlink:href="#au"/></g><path d="M-4 44V30h207v14H-4" id="aR"/><path d="M135-194c52 0 70 43 70 98 0 56-19 99-73 100-30 1-46-15-58-35L72 0H24l1-261h50v104c11-23 29-37 60-37zM114-30c31 0 40-27 40-66 0-37-7-63-39-63s-41 28-41 65c0 36 8 64 40 64" id="aS"/><g id="r"><use transform="matrix(0.1111111111111111,0,0,0.1111111111111111,0,0)" xlink:href="#ah"/><use transform="matrix(0.1111111111111111,0,0,0.1111111111111111,33.22222222222222,0)" xlink:href="#al"/><use transform="matrix(0.1111111111111111,0,0,0.1111111111111111,44.33333333333333,0)" xlink:href="#ah"/><use transform="matrix(0.1111111111111111,0,0,0.1111111111111111,77.55555555555554,0)" xlink:href="#al"/><use transform="matrix(0.1111111111111111,0,0,0.1111111111111111,88.66666666666666,0)" xlink:href="#aQ"/><use transform="matrix(0.1111111111111111,0,0,0.1111111111111111,117.44444444444444,0)" xlink:href="#al"/><use transform="matrix(0.1111111111111111,0,0,0.1111111111111111,128.55555555555554,0)" xlink:href="#aJ"/><use transform="matrix(0.1111111111111111,0,0,0.1111111111111111,155.2222222222222,0)" xlink:href="#aR"/><use transform="matrix(0.1111111111111111,0,0,0.1111111111111111,177.44444444444443,0)" xlink:href="#aM"/><use transform="matrix(0.1111111111111111,0,0,0.1111111111111111,201.77777777777777,0)" xlink:href="#ah"/><use transform="matrix(0.1111111111111111,0,0,0.1111111111111111,235,0)" xlink:href="#az"/><use transform="matrix(0.1111111111111111,0,0,0.1111111111111111,257.22222222222223,0)" xlink:href="#aR"/><use transform="matrix(0.1111111111111111,0,0,0.1111111111111111,279.44444444444446,0)" xlink:href="#aH"/><use transform="matrix(0.1111111111111111,0,0,0.1111111111111111,303.77777777777777,0)" xlink:href="#aL"/><use transform="matrix(0.1111111111111111,0,0,0.1111111111111111,328.1111111111111,0)" xlink:href="#aS"/><use transform="matrix(0.1111111111111111,0,0,0.1111111111111111,352.4444444444444,0)" xlink:href="#aI"/><use transform="matrix(0.1111111111111111,0,0,0.1111111111111111,363.5555555555555,0)" xlink:href="#av"/><use transform="matrix(0.1111111111111111,0,0,0.1111111111111111,374.6666666666666,0)" xlink:href="#aF"/></g><path d="M144 0l-44-69L55 0H2l70-98-66-92h53l41 62 40-62h54l-67 91 71 99h-54" id="aT"/><path d="M128 0H69L1-190h53L99-40l48-150h52" id="aU"/><g id="s"><use transform="matrix(0.1111111111111111,0,0,0.1111111111111111,0,0)" xlink:href="#an"/><use transform="matrix(0.1111111111111111,0,0,0.1111111111111111,26.666666666666664,0)" xlink:href="#aT"/><use transform="matrix(0.1111111111111111,0,0,0.1111111111111111,48.888888888888886,0)" xlink:href="#aC"/><use transform="matrix(0.1111111111111111,0,0,0.1111111111111111,62.11111111111111,0)" xlink:href="#ax"/><use transform="matrix(0.1111111111111111,0,0,0.1111111111111111,84.33333333333333,0)" xlink:href="#aK"/><use transform="matrix(0.1111111111111111,0,0,0.1111111111111111,108.66666666666666,0)" xlink:href="#az"/><use transform="matrix(0.1111111111111111,0,0,0.1111111111111111,130.88888888888889,0)" xlink:href="#av"/><use transform="matrix(0.1111111111111111,0,0,0.1111111111111111,142,0)" xlink:href="#aU"/><use transform="matrix(0.1111111111111111,0,0,0.1111111111111111,164.22222222222223,0)" xlink:href="#ax"/></g><g id="t"><use transform="matrix(0.1111111111111111,0,0,0.1111111111111111,0,0)" xlink:href="#aA"/><use transform="matrix(0.1111111111111111,0,0,0.1111111111111111,28.777777777777775,0)" xlink:href="#aB"/><use transform="matrix(0.1111111111111111,0,0,0.1111111111111111,51,0)" xlink:href="#aC"/><use transform="matrix(0.1111111111111111,0,0,0.1111111111111111,64.22222222222223,0)" xlink:href="#aB"/></g><g id="u"><use transform="matrix(0.1111111111111111,0,0,0.1111111111111111,0,0)" xlink:href="#aP"/><use transform="matrix(0.1111111111111111,0,0,0.1111111111111111,26.666666666666664,0)" xlink:href="#ay"/><use transform="matrix(0.1111111111111111,0,0,0.1111111111111111,42.22222222222222,0)" xlink:href="#aE"/><use transform="matrix(0.1111111111111111,0,0,0.1111111111111111,66.55555555555556,0)" xlink:href="#aF"/><use transform="matrix(0.1111111111111111,0,0,0.1111111111111111,88.77777777777777,0)" xlink:href="#ax"/><use transform="matrix(0.1111111111111111,0,0,0.1111111111111111,111,0)" xlink:href="#az"/><use transform="matrix(0.1111111111111111,0,0,0.1111111111111111,133.22222222222223,0)" xlink:href="#az"/><use transform="matrix(0.1111111111111111,0,0,0.1111111111111111,155.44444444444446,0)" xlink:href="#av"/><use transform="matrix(0.1111111111111111,0,0,0.1111111111111111,166.55555555555557,0)" xlink:href="#aK"/><use transform="matrix(0.1111111111111111,0,0,0.1111111111111111,190.8888888888889,0)" xlink:href="#aN"/></g><g id="v"><use transform="matrix(0.1111111111111111,0,0,0.1111111111111111,0,0)" xlink:href="#aP"/><use transform="matrix(0.1111111111111111,0,0,0.1111111111111111,26.666666666666664,0)" xlink:href="#av"/><use transform="matrix(0.1111111111111111,0,0,0.1111111111111111,37.77777777777777,0)" xlink:href="#aH"/><use transform="matrix(0.1111111111111111,0,0,0.1111111111111111,62.11111111111109,0)" xlink:href="#ax"/><use transform="matrix(0.1111111111111111,0,0,0.1111111111111111,84.33333333333331,0)" xlink:href="#aI"/><use transform="matrix(0.1111111111111111,0,0,0.1111111111111111,95.44444444444443,0)" xlink:href="#av"/><use transform="matrix(0.1111111111111111,0,0,0.1111111111111111,106.55555555555554,0)" xlink:href="#aK"/><use transform="matrix(0.1111111111111111,0,0,0.1111111111111111,130.88888888888889,0)" xlink:href="#ax"/></g><g id="w"><use transform="matrix(0.1111111111111111,0,0,0.1111111111111111,0,0)" xlink:href="#aP"/><use transform="matrix(0.1111111111111111,0,0,0.1111111111111111,26.666666666666664,0)" xlink:href="#av"/><use transform="matrix(0.1111111111111111,0,0,0.1111111111111111,37.77777777777777,0)" xlink:href="#aH"/><use transform="matrix(0.1111111111111111,0,0,0.1111111111111111,62.11111111111109,0)" xlink:href="#ax"/><use transform="matrix(0.1111111111111111,0,0,0.1111111111111111,84.33333333333331,0)" xlink:href="#aI"/><use transform="matrix(0.1111111111111111,0,0,0.1111111111111111,95.44444444444443,0)" xlink:href="#av"/><use transform="matrix(0.1111111111111111,0,0,0.1111111111111111,106.55555555555554,0)" xlink:href="#aK"/><use transform="matrix(0.1111111111111111,0,0,0.1111111111111111,130.88888888888889,0)" xlink:href="#ax"/></g><path d="M1006-595H430V0H130v-1456h948v243H430v376h576v242" id="aV"/><path d="M416 0H126v-1536h290V0" id="aW"/><path d="M1031-175C952-60 797 20 609 20 287 20 60-206 72-543c12-330 180-559 505-559 309 0 482 214 477 537v118H365c15 134 115 234 263 234 111 0 198-40 261-121zM770-644c5-139-62-226-194-224-130 1-191 97-208 224h402" id="aX"/><path d="M523-759l182-323h309L706-552 1027 0H717L524-340 332 0H21l321-552-307-530h310" id="aY"/><path d="M416 0H126v-1082h290V0zM271-1212c-92 0-162-61-162-150s68-149 162-149c93 0 162 60 162 149s-70 150-162 150" id="aZ"/><path d="M663-1102c295 0 423 246 423 571 0 313-131 551-421 551-117 0-211-45-281-135L371 0H111v-1536h289v551c67-78 154-117 263-117zm-71 889c164 0 209-139 205-339-3-189-44-315-207-315-92 0-155 38-190 113v427c35 76 99 114 192 114" id="ba"/><g id="x"><use transform="matrix(0.01953125,0,0,0.01953125,0,0)" xlink:href="#aV"/><use transform="matrix(0.01953125,0,0,0.01953125,21.9140625,0)" xlink:href="#aW"/><use transform="matrix(0.01953125,0,0,0.01953125,32.51953125,0)" xlink:href="#aX"/><use transform="matrix(0.01953125,0,0,0.01953125,54.140625,0)" xlink:href="#aY"/><use transform="matrix(0.01953125,0,0,0.01953125,74.4921875,0)" xlink:href="#aZ"/><use transform="matrix(0.01953125,0,0,0.01953125,85.09765625,0)" xlink:href="#ba"/><use transform="matrix(0.01953125,0,0,0.01953125,107.6171875,0)" xlink:href="#aW"/><use transform="matrix(0.01953125,0,0,0.01953125,118.22265625,0)" xlink:href="#aX"/></g><path d="M130 0v-1456h448c435 14 673 299 665 762-5 285-130 500-319 606C822-31 708 0 581 0H130zm809-685c9-311-79-526-361-528H430v972h145c252-2 356-181 364-444" id="bb"/><path d="M552-1102c254-4 435 134 435 383v469c1 103 15 180 43 233V0H738c-13-26-23-58-29-97C639-19 548 20 436 20 238 20 64-113 68-304c5-258 212-357 496-357h133c11-137-29-227-160-227-90 0-156 45-156 131H92c15-231 213-342 460-345zM357-325c0 76 61 124 142 124 88 0 168-45 198-105v-186H589c-152 2-232 51-232 167" id="bc"/><path d="M457-330c2 83 25 111 111 112 32 0 60-2 85-7V-6c-57 17-115 26-175 26-203 0-310-102-310-307v-583H10v-212h158v-266h289v266h185v212H457v540" id="bd"/><path d="M673-507H110v-233h563v233" id="be"/><path d="M719-811c-143-24-279 1-319 103V0H111v-1082h273l8 129c74-124 180-175 331-136" id="bf"/><path d="M516-353l201-729h302L654 0H378L13-1082h302" id="bg"/><path d="M750-692c-1-124-48-174-173-175-81 0-142 35-183 104V0H105v-1082h272l9 125c77-97 181-145 311-145 244 0 342 151 342 403V0H750v-692" id="bh"/><g id="y"><use transform="matrix(0.01953125,0,0,0.01953125,0,0)" xlink:href="#bb"/><use transform="matrix(0.01953125,0,0,0.01953125,25.99609375,0)" xlink:href="#bc"/><use transform="matrix(0.01953125,0,0,0.01953125,47.44140625,0)" xlink:href="#bd"/><use transform="matrix(0.01953125,0,0,0.01953125,60.95703125,0)" xlink:href="#bc"/><use transform="matrix(0.01953125,0,0,0.01953125,82.40234375,0)" xlink:href="#be"/><use transform="matrix(0.01953125,0,0,0.01953125,97.91015625,0)" xlink:href="#bb"/><use transform="matrix(0.01953125,0,0,0.01953125,123.90625,0)" xlink:href="#bf"/><use transform="matrix(0.01953125,0,0,0.01953125,138.49609375,0)" xlink:href="#aZ"/><use transform="matrix(0.01953125,0,0,0.01953125,149.1015625,0)" xlink:href="#bg"/><use transform="matrix(0.01953125,0,0,0.01953125,169.0625,0)" xlink:href="#aX"/><use transform="matrix(0.01953125,0,0,0.01953125,190.68359375,0)" xlink:href="#bh"/></g><path d="M1245-974c0 302-233 466-552 461H430V0H130v-1456h568c323 5 547 167 547 482zm-303 2c1-143-93-241-237-241H430v457h268c151 1 244-71 244-216" id="bi"/><path d="M663-1102c295 0 422 250 422 571 0 300-141 549-420 551-109 0-198-38-265-114v510H111v-1498h268l10 106c70-84 161-126 274-126zm133 550c0-175-53-315-209-315-91 0-153 35-187 104v443c35 71 98 107 189 107 138 0 207-113 207-339" id="bj"/><g id="z"><use transform="matrix(0.01953125,0,0,0.01953125,0,0)" xlink:href="#bi"/><use transform="matrix(0.01953125,0,0,0.01953125,25.80078125,0)" xlink:href="#aZ"/><use transform="matrix(0.01953125,0,0,0.01953125,36.40625,0)" xlink:href="#bj"/><use transform="matrix(0.01953125,0,0,0.01953125,58.92578125,0)" xlink:href="#aX"/><use transform="matrix(0.01953125,0,0,0.01953125,80.546875,0)" xlink:href="#aW"/><use transform="matrix(0.01953125,0,0,0.01953125,91.15234375,0)" xlink:href="#aZ"/><use transform="matrix(0.01953125,0,0,0.01953125,101.7578125,0)" xlink:href="#bh"/><use transform="matrix(0.01953125,0,0,0.01953125,124.16015625,0)" xlink:href="#aX"/></g><path d="M369-598c0 393 97 738 310 900l-56 153c-200-92-361-334-433-572-84-277-87-628-5-911 71-244 234-495 438-588l56 156c-205 153-310 488-310 862" id="bk"/><path d="M449 0H149v-1456h300V0" id="bl"/><path d="M430-241h637V0H130v-1456h300v1215" id="bm"/><path d="M1006-631H430v390h676V0H130v-1456h974v243H430v347h576v235" id="bn"/><path d="M349-541c6-400-96-755-309-922l56-153c203 91 368 336 444 575 89 280 91 621 4 907-74 244-242 497-448 589L40 302c199-150 304-484 309-843" id="bo"/><g id="A"><use transform="matrix(0.01953125,0,0,0.01953125,0,0)" xlink:href="#bk"/><use transform="matrix(0.01953125,0,0,0.01953125,14.04296875,0)" xlink:href="#aV"/><use transform="matrix(0.01953125,0,0,0.01953125,35.95703125,0)" xlink:href="#bl"/><use transform="matrix(0.01953125,0,0,0.01953125,47.6171875,0)" xlink:href="#bb"/><use transform="matrix(0.01953125,0,0,0.01953125,73.61328125,0)" xlink:href="#bb"/><use transform="matrix(0.01953125,0,0,0.01953125,99.609375,0)" xlink:href="#bm"/><use transform="matrix(0.01953125,0,0,0.01953125,121.26953125,0)" xlink:href="#bn"/><use transform="matrix(0.01953125,0,0,0.01953125,143.76953125,0)" xlink:href="#bo"/></g><path d="M522-1456L896-400l372-1056h394V0h-301c-7-379 15-728 30-1085L998 0H792L400-1084c15 357 37 705 30 1084H130v-1456h392" id="bp"/><path d="M463 20c-241-1-359-147-359-393v-709h289v699c0 113 51 169 154 169 98 0 165-34 202-102v-766h290V0H767l-8-110C688-23 589 20 463 20" id="bq"/><path d="M488 20C204 20 66-234 66-549c0-305 140-551 424-553 105 0 192 39 261 118v-552h290V0H780l-14-115C694-25 601 20 488 20zM355-528c0 176 51 314 207 314 89 0 152-38 189-113v-427c-36-75-98-113-187-113-139 0-209 113-209 339" id="br"/><path d="M529-185c94 0 168-33 168-114 0-35-18-63-53-83s-91-39-168-55C219-491 90-600 90-765c0-208 203-337 432-337 246 0 451 124 453 349H686c-2-91-62-143-165-143-86 0-151 41-153 117 0 32 16 57 46 77 63 43 257 69 335 100 151 60 229 153 229 291C978-13 554 93 282-28 162-81 60-190 56-344h274c5 106 86 159 199 159" id="bs"/><g id="B"><use transform="matrix(0.01953125,0,0,0.01953125,0,0)" xlink:href="#bp"/><use transform="matrix(0.01953125,0,0,0.01953125,35.0390625,0)" xlink:href="#bq"/><use transform="matrix(0.01953125,0,0,0.01953125,57.421875,0)" xlink:href="#aW"/><use transform="matrix(0.01953125,0,0,0.01953125,68.02734375,0)" xlink:href="#bd"/><use transform="matrix(0.01953125,0,0,0.01953125,81.54296875,0)" xlink:href="#aZ"/><use transform="matrix(0.01953125,0,0,0.01953125,92.1484375,0)" xlink:href="#br"/><use transform="matrix(0.01953125,0,0,0.01953125,114.6875,0)" xlink:href="#bc"/><use transform="matrix(0.01953125,0,0,0.01953125,136.1328125,0)" xlink:href="#bd"/><use transform="matrix(0.01953125,0,0,0.01953125,149.6484375,0)" xlink:href="#bc"/><use transform="matrix(0.01953125,0,0,0.01953125,171.09375,0)" xlink:href="#ba"/><use transform="matrix(0.01953125,0,0,0.01953125,193.61328125,0)" xlink:href="#bc"/><use transform="matrix(0.01953125,0,0,0.01953125,215.05859375,0)" xlink:href="#bs"/><use transform="matrix(0.01953125,0,0,0.01953125,235.625,0)" xlink:href="#aX"/></g><path d="M1226-1213H780V0H480v-1213H40v-243h1186v243" id="bt"/><path d="M1209-1016c0 219-100 334-260 407l315 595V0H942L669-533H430V0H130v-1456h541c318-3 538 141 538 440zm-300 24c-1-144-85-221-238-221H430v437h242c144 2 238-77 237-216" id="bu"/><path d="M355-556c-2 203 30 338 206 343 102 3 181-63 182-161h271C1001-128 821 17 566 20 242 24 66-212 66-554c0-320 184-548 498-548 262 0 451 167 450 423H743c-1-108-75-193-184-189-162 6-202 123-204 312" id="bv"/><path d="M579 20C257 20 58-214 66-551c8-331 182-551 511-551 324 0 514 231 514 572 0 319-198 550-512 550zm-2-888c-169 0-222 141-222 338 0 181 61 317 224 317 170 0 223-137 223-338 0-178-64-317-225-317" id="bw"/><g id="C"><use transform="matrix(0.01953125,0,0,0.01953125,0,0)" xlink:href="#bn"/><use transform="matrix(0.01953125,0,0,0.01953125,22.5,0)" xlink:href="#aY"/><use transform="matrix(0.01953125,0,0,0.01953125,42.8515625,0)" xlink:href="#bt"/><use transform="matrix(0.01953125,0,0,0.01953125,67.59765625,0)" xlink:href="#bu"/><use transform="matrix(0.01953125,0,0,0.01953125,93.125,0)" xlink:href="#bc"/><use transform="matrix(0.01953125,0,0,0.01953125,114.5703125,0)" xlink:href="#bv"/><use transform="matrix(0.01953125,0,0,0.01953125,135.4296875,0)" xlink:href="#bd"/><use transform="matrix(0.01953125,0,0,0.01953125,148.9453125,0)" xlink:href="#aZ"/><use transform="matrix(0.01953125,0,0,0.01953125,159.55078125,0)" xlink:href="#bw"/><use transform="matrix(0.01953125,0,0,0.01953125,182.16796875,0)" xlink:href="#bh"/></g><g id="D"><use transform="matrix(0.01953125,0,0,0.01953125,0,0)" xlink:href="#bi"/><use transform="matrix(0.01953125,0,0,0.01953125,25.80078125,0)" xlink:href="#aZ"/><use transform="matrix(0.01953125,0,0,0.01953125,36.40625,0)" xlink:href="#bj"/><use transform="matrix(0.01953125,0,0,0.01953125,58.92578125,0)" xlink:href="#bn"/><use transform="matrix(0.01953125,0,0,0.01953125,81.42578125,0)" xlink:href="#aW"/><use transform="matrix(0.01953125,0,0,0.01953125,92.03125,0)" xlink:href="#aZ"/><use transform="matrix(0.01953125,0,0,0.01953125,102.63671875,0)" xlink:href="#bh"/><use transform="matrix(0.01953125,0,0,0.01953125,125.0390625,0)" xlink:href="#aX"/></g><g id="E"><use transform="matrix(0.01953125,0,0,0.01953125,0,0)" xlink:href="#bk"/><use transform="matrix(0.01953125,0,0,0.01953125,14.04296875,0)" xlink:href="#bp"/><use transform="matrix(0.01953125,0,0,0.01953125,49.08203125,0)" xlink:href="#bn"/><use transform="matrix(0.01953125,0,0,0.01953125,71.97265625,0)" xlink:href="#bt"/><use transform="matrix(0.01953125,0,0,0.01953125,96.71875,0)" xlink:href="#bu"/><use transform="matrix(0.01953125,0,0,0.01953125,122.24609375,0)" xlink:href="#bn"/><use transform="matrix(0.01953125,0,0,0.01953125,144.74609375,0)" xlink:href="#bo"/></g><path d="M687-225c189-1 272-84 286-260h300c-19 311-251 505-586 505C296 20 86-277 86-686c0-466 174-782 605-790 340-6 557 198 584 514H975c-15-183-92-268-284-268-100 0-173 38-225 108-63 84-76 264-76 443 0 157 24 272 72 345s122 109 225 109" id="bx"/><g id="F"><use transform="matrix(0.01953125,0,0,0.01953125,0,0)" xlink:href="#bp"/><use transform="matrix(0.01953125,0,0,0.01953125,35.0390625,0)" xlink:href="#bl"/><use transform="matrix(0.01953125,0,0,0.01953125,46.69921875,0)" xlink:href="#bp"/><use transform="matrix(0.01953125,0,0,0.01953125,81.73828125,0)" xlink:href="#bl"/><use transform="matrix(0.01953125,0,0,0.01953125,93.3984375,0)" xlink:href="#bx"/><use transform="matrix(0.01953125,0,0,0.01953125,119.5703125,0)" xlink:href="#be"/><use transform="matrix(0.01953125,0,0,0.01953125,135.078125,0)" xlink:href="#bn"/><use transform="matrix(0.01953125,0,0,0.01953125,157.578125,0)" xlink:href="#aY"/><use transform="matrix(0.01953125,0,0,0.01953125,177.9296875,0)" xlink:href="#bd"/><use transform="matrix(0.01953125,0,0,0.01953125,191.4453125,0)" xlink:href="#bf"/><use transform="matrix(0.01953125,0,0,0.01953125,205.44921875,0)" xlink:href="#bc"/><use transform="matrix(0.01953125,0,0,0.01953125,226.89453125,0)" xlink:href="#bv"/><use transform="matrix(0.01953125,0,0,0.01953125,247.75390625,0)" xlink:href="#bd"/></g><g id="G"><use transform="matrix(0.1111111111111111,0,0,0.1111111111111111,0,0)" xlink:href="#aj"/><use transform="matrix(0.1111111111111111,0,0,0.1111111111111111,24.333333333333332,0)" xlink:href="#aB"/><use transform="matrix(0.1111111111111111,0,0,0.1111111111111111,46.55555555555556,0)" xlink:href="#ay"/><use transform="matrix(0.1111111111111111,0,0,0.1111111111111111,62.11111111111112,0)" xlink:href="#aN"/><use transform="matrix(0.1111111111111111,0,0,0.1111111111111111,86.44444444444444,0)" xlink:href="#ax"/></g><g id="H"><use transform="matrix(0.1111111111111111,0,0,0.1111111111111111,0,0)" xlink:href="#aj"/><use transform="matrix(0.1111111111111111,0,0,0.1111111111111111,24.333333333333332,0)" xlink:href="#aB"/><use transform="matrix(0.1111111111111111,0,0,0.1111111111111111,46.55555555555556,0)" xlink:href="#aK"/><use transform="matrix(0.1111111111111111,0,0,0.1111111111111111,70.88888888888889,0)" xlink:href="#aN"/><use transform="matrix(0.1111111111111111,0,0,0.1111111111111111,95.22222222222221,0)" xlink:href="#aN"/><use transform="matrix(0.1111111111111111,0,0,0.1111111111111111,119.55555555555554,0)" xlink:href="#aL"/><use transform="matrix(0.1111111111111111,0,0,0.1111111111111111,143.88888888888889,0)" xlink:href="#aB"/><use transform="matrix(0.1111111111111111,0,0,0.1111111111111111,166.11111111111111,0)" xlink:href="#aN"/><use transform="matrix(0.1111111111111111,0,0,0.1111111111111111,190.44444444444446,0)" xlink:href="#ax"/></g><g id="I"><use transform="matrix(0.1111111111111111,0,0,0.1111111111111111,0,0)" xlink:href="#ah"/><use transform="matrix(0.1111111111111111,0,0,0.1111111111111111,33.22222222222222,0)" xlink:href="#aE"/><use transform="matrix(0.1111111111111111,0,0,0.1111111111111111,57.55555555555555,0)" xlink:href="#aG"/><use transform="matrix(0.1111111111111111,0,0,0.1111111111111111,81.88888888888889,0)" xlink:href="#ax"/><use transform="matrix(0.1111111111111111,0,0,0.1111111111111111,104.11111111111111,0)" xlink:href="#aI"/></g><g id="J"><use transform="matrix(0.1111111111111111,0,0,0.1111111111111111,0,0)" xlink:href="#az"/><use transform="matrix(0.1111111111111111,0,0,0.1111111111111111,22.22222222222222,0)" xlink:href="#ax"/><use transform="matrix(0.1111111111111111,0,0,0.1111111111111111,44.44444444444444,0)" xlink:href="#aw"/><use transform="matrix(0.1111111111111111,0,0,0.1111111111111111,80,0)" xlink:href="#aB"/><use transform="matrix(0.1111111111111111,0,0,0.1111111111111111,102.22222222222223,0)" xlink:href="#aK"/><use transform="matrix(0.1111111111111111,0,0,0.1111111111111111,126.55555555555554,0)" xlink:href="#aC"/><use transform="matrix(0.1111111111111111,0,0,0.1111111111111111,139.77777777777777,0)" xlink:href="#av"/><use transform="matrix(0.1111111111111111,0,0,0.1111111111111111,150.88888888888889,0)" xlink:href="#aF"/></g><path d="M84 4C32 4 15-41 15-95c0-55 18-99 73-99 29 0 47 12 58 34l2-30h48l-1 265h-49V-32C136-9 114 4 84 4zm21-34c32 0 41-29 41-66 0-36-9-64-40-64-33 0-39 30-40 65 0 43 13 65 39 65" id="by"/><g id="K"><use transform="matrix(0.1111111111111111,0,0,0.1111111111111111,0,0)" xlink:href="#by"/><use transform="matrix(0.1111111111111111,0,0,0.1111111111111111,24.333333333333332,0)" xlink:href="#aL"/><use transform="matrix(0.1111111111111111,0,0,0.1111111111111111,48.666666666666664,0)" xlink:href="#ax"/><use transform="matrix(0.1111111111111111,0,0,0.1111111111111111,70.88888888888889,0)" xlink:href="#ay"/><use transform="matrix(0.1111111111111111,0,0,0.1111111111111111,86.44444444444444,0)" xlink:href="#aO"/></g><g id="L"><use transform="matrix(0.1111111111111111,0,0,0.1111111111111111,0,0)" xlink:href="#ax"/><use transform="matrix(0.1111111111111111,0,0,0.1111111111111111,22.22222222222222,0)" xlink:href="#aK"/><use transform="matrix(0.1111111111111111,0,0,0.1111111111111111,46.55555555555556,0)" xlink:href="#aN"/><use transform="matrix(0.1111111111111111,0,0,0.1111111111111111,70.88888888888889,0)" xlink:href="#av"/><use transform="matrix(0.1111111111111111,0,0,0.1111111111111111,82,0)" xlink:href="#aK"/><use transform="matrix(0.1111111111111111,0,0,0.1111111111111111,106.33333333333333,0)" xlink:href="#ax"/></g><g id="M"><use transform="matrix(0.1111111111111111,0,0,0.1111111111111111,0,0)" xlink:href="#ak"/><use transform="matrix(0.1111111111111111,0,0,0.1111111111111111,21.333333333333332,0)" xlink:href="#aB"/><use transform="matrix(0.1111111111111111,0,0,0.1111111111111111,43.55555555555556,0)" xlink:href="#aS"/><use transform="matrix(0.1111111111111111,0,0,0.1111111111111111,67.88888888888889,0)" xlink:href="#aI"/><use transform="matrix(0.1111111111111111,0,0,0.1111111111111111,79,0)" xlink:href="#ax"/><use transform="matrix(0.1111111111111111,0,0,0.1111111111111111,101.22222222222223,0)" xlink:href="#am"/><use transform="matrix(0.1111111111111111,0,0,0.1111111111111111,114.44444444444446,0)" xlink:href="#ao"/><use transform="matrix(0.1111111111111111,0,0,0.1111111111111111,143.22222222222223,0)" xlink:href="#aL"/><use transform="matrix(0.1111111111111111,0,0,0.1111111111111111,167.55555555555557,0)" xlink:href="#aN"/><use transform="matrix(0.1111111111111111,0,0,0.1111111111111111,191.8888888888889,0)" xlink:href="#aw"/><use transform="matrix(0.1111111111111111,0,0,0.1111111111111111,227.44444444444446,0)" xlink:href="#ax"/><use transform="matrix(0.1111111111111111,0,0,0.1111111111111111,249.6666666666667,0)" xlink:href="#aK"/><use transform="matrix(0.1111111111111111,0,0,0.1111111111111111,274,0)" xlink:href="#aC"/><use transform="matrix(0.1111111111111111,0,0,0.1111111111111111,287.22222222222223,0)" xlink:href="#ax"/><use transform="matrix(0.1111111111111111,0,0,0.1111111111111111,309.44444444444446,0)" xlink:href="#aG"/></g><path d="M67-125c0 54 23 88 75 88 28 0 53-7 68-21v-34h-60v-39h108v91C232-14 192 4 140 4 58 4 20-42 15-125 8-236 126-280 215-234c19 10 29 26 37 47l-47 15c-11-23-29-39-63-39-53 1-75 33-75 86" id="bz"/><g id="N"><use transform="matrix(0.1111111111111111,0,0,0.1111111111111111,0,0)" xlink:href="#bz"/><use transform="matrix(0.1111111111111111,0,0,0.1111111111111111,31.11111111111111,0)" xlink:href="#ax"/><use transform="matrix(0.1111111111111111,0,0,0.1111111111111111,53.33333333333333,0)" xlink:href="#aK"/><use transform="matrix(0.1111111111111111,0,0,0.1111111111111111,77.66666666666666,0)" xlink:href="#ax"/><use transform="matrix(0.1111111111111111,0,0,0.1111111111111111,99.88888888888889,0)" xlink:href="#ay"/><use transform="matrix(0.1111111111111111,0,0,0.1111111111111111,115.44444444444444,0)" xlink:href="#aB"/><use transform="matrix(0.1111111111111111,0,0,0.1111111111111111,137.66666666666666,0)" xlink:href="#aC"/><use transform="matrix(0.1111111111111111,0,0,0.1111111111111111,150.88888888888889,0)" xlink:href="#av"/><use transform="matrix(0.1111111111111111,0,0,0.1111111111111111,162,0)" xlink:href="#aE"/><use transform="matrix(0.1111111111111111,0,0,0.1111111111111111,186.33333333333334,0)" xlink:href="#aK"/></g><g id="O"><use transform="matrix(0.1111111111111111,0,0,0.1111111111111111,0,0)" xlink:href="#aA"/><use transform="matrix(0.1111111111111111,0,0,0.1111111111111111,28.777777777777775,0)" xlink:href="#aB"/><use transform="matrix(0.1111111111111111,0,0,0.1111111111111111,51,0)" xlink:href="#aC"/><use transform="matrix(0.1111111111111111,0,0,0.1111111111111111,64.22222222222223,0)" xlink:href="#aB"/></g><g id="P"><use transform="matrix(0.1111111111111111,0,0,0.1111111111111111,0,0)" xlink:href="#an"/><use transform="matrix(0.1111111111111111,0,0,0.1111111111111111,26.666666666666664,0)" xlink:href="#aT"/><use transform="matrix(0.1111111111111111,0,0,0.1111111111111111,48.888888888888886,0)" xlink:href="#aC"/><use transform="matrix(0.1111111111111111,0,0,0.1111111111111111,62.11111111111111,0)" xlink:href="#ay"/><use transform="matrix(0.1111111111111111,0,0,0.1111111111111111,77.66666666666666,0)" xlink:href="#aB"/><use transform="matrix(0.1111111111111111,0,0,0.1111111111111111,99.88888888888889,0)" xlink:href="#aF"/><use transform="matrix(0.1111111111111111,0,0,0.1111111111111111,122.1111111111111,0)" xlink:href="#aC"/></g><g id="Q"><use transform="matrix(0.1111111111111111,0,0,0.1111111111111111,0,0)" xlink:href="#aP"/><use transform="matrix(0.1111111111111111,0,0,0.1111111111111111,26.666666666666664,0)" xlink:href="#ay"/><use transform="matrix(0.1111111111111111,0,0,0.1111111111111111,42.22222222222222,0)" xlink:href="#ax"/><use transform="matrix(0.1111111111111111,0,0,0.1111111111111111,64.44444444444444,0)" xlink:href="#aH"/><use transform="matrix(0.1111111111111111,0,0,0.1111111111111111,88.77777777777777,0)" xlink:href="#ay"/><use transform="matrix(0.1111111111111111,0,0,0.1111111111111111,104.33333333333333,0)" xlink:href="#ax"/><use transform="matrix(0.1111111111111111,0,0,0.1111111111111111,126.55555555555554,0)" xlink:href="#az"/><use transform="matrix(0.1111111111111111,0,0,0.1111111111111111,148.77777777777777,0)" xlink:href="#az"/><use transform="matrix(0.1111111111111111,0,0,0.1111111111111111,171,0)" xlink:href="#av"/><use transform="matrix(0.1111111111111111,0,0,0.1111111111111111,182.11111111111111,0)" xlink:href="#aK"/><use transform="matrix(0.1111111111111111,0,0,0.1111111111111111,206.44444444444446,0)" xlink:href="#aN"/></g><path fill="#1f2328" d="M85 4C-2 5 27-109 22-190h50c7 57-23 150 33 157 60-5 35-97 40-157h50l1 190h-47c-2-12 1-28-3-38-12 25-28 42-61 42" id="bA"/><path fill="#1f2328" d="M137-138c1-29-70-34-71-4 15 46 118 7 119 86 1 83-164 76-172 9l43-7c4 19 20 25 44 25 33 8 57-30 24-41C81-84 22-81 20-136c-2-80 154-74 161-7" id="bB"/><path fill="#1f2328" d="M25-224v-37h50v37H25zM25 0v-190h50V0H25" id="bC"/><path fill="#1f2328" d="M135-194c87-1 58 113 63 194h-50c-7-57 23-157-34-157-59 0-34 97-39 157H25l-1-190h47c2 12-1 28 3 38 12-26 28-41 61-42" id="bD"/><path fill="#1f2328" d="M195-6C206 82 75 100 31 46c-4-6-6-13-8-21l49-6c3 16 16 24 34 25 40 0 42-37 40-79-11 22-30 35-61 35-53 0-70-43-70-97 0-56 18-96 73-97 30 0 46 14 59 34l2-30h47zm-90-29c32 0 41-27 41-63 0-35-9-62-40-62-32 0-39 29-40 63 0 36 9 62 39 62" id="bE"/><g id="R"><use transform="matrix(0.1111111111111111,0,0,0.1111111111111111,0,0)" xlink:href="#bA"/><use transform="matrix(0.1111111111111111,0,0,0.1111111111111111,24.333333333333332,0)" xlink:href="#bB"/><use transform="matrix(0.1111111111111111,0,0,0.1111111111111111,46.55555555555556,0)" xlink:href="#bC"/><use transform="matrix(0.1111111111111111,0,0,0.1111111111111111,57.66666666666668,0)" xlink:href="#bD"/><use transform="matrix(0.1111111111111111,0,0,0.1111111111111111,82,0)" xlink:href="#bE"/></g><path fill="#1f2328" d="M24 0v-248h52v208h133V0H24" id="bF"/><path fill="#1f2328" d="M230 0l2-204L168 0h-37L68-204 70 0H24v-248h70l56 185 57-185h69V0h-46" id="bG"/><g id="S"><use transform="matrix(0.1111111111111111,0,0,0.1111111111111111,0,0)" xlink:href="#bF"/><use transform="matrix(0.1111111111111111,0,0,0.1111111111111111,24.333333333333332,0)" xlink:href="#bF"/><use transform="matrix(0.1111111111111111,0,0,0.1111111111111111,48.666666666666664,0)" xlink:href="#bG"/><use transform="matrix(0.1111111111111111,0,0,0.1111111111111111,81.88888888888889,0)" xlink:href="#bB"/></g><path fill="#1f2328" d="M133-34C117-15 103 5 69 4 32 3 11-16 11-54c-1-60 55-63 116-61 1-26-3-47-28-47-18 1-26 9-28 27l-52-2c7-38 36-58 82-57s74 22 75 68l1 82c-1 14 12 18 25 15v27c-30 8-71 5-69-32zm-48 3c29 0 43-24 42-57-32 0-66-3-65 30 0 17 8 27 23 27" id="bH"/><path fill="#1f2328" d="M135-194c52 0 70 43 70 98 0 56-19 99-73 100-30 1-46-15-58-35L72 0H24l1-261h50v104c11-23 29-37 60-37zM114-30c31 0 40-27 40-66 0-37-7-63-39-63s-41 28-41 65c0 36 8 64 40 64" id="bI"/><path fill="#1f2328" d="M25 0v-261h50V0H25" id="bJ"/><path fill="#1f2328" d="M115-3C79 11 28 4 28-45v-112H4v-33h27l15-45h31v45h36v33H77v99c-1 23 16 31 38 25v30" id="bK"/><path fill="#1f2328" d="M123 10C108 53 80 86 19 72V37c35 8 53-11 59-39L3-190h52l48 148c12-52 28-100 44-148h51" id="bL"/><g id="T"><use transform="matrix(0.1111111111111111,0,0,0.1111111111111111,0,0)" xlink:href="#bH"/><use transform="matrix(0.1111111111111111,0,0,0.1111111111111111,22.22222222222222,0)" xlink:href="#bI"/><use transform="matrix(0.1111111111111111,0,0,0.1111111111111111,46.55555555555556,0)" xlink:href="#bC"/><use transform="matrix(0.1111111111111111,0,0,0.1111111111111111,57.66666666666668,0)" xlink:href="#bJ"/><use transform="matrix(0.1111111111111111,0,0,0.1111111111111111,68.77777777777779,0)" xlink:href="#bC"/><use transform="matrix(0.1111111111111111,0,0,0.1111111111111111,79.8888888888889,0)" xlink:href="#bK"/><use transform="matrix(0.1111111111111111,0,0,0.1111111111111111,93.11111111111111,0)" xlink:href="#bL"/></g><path fill="#1f2328" d="M110-194c64 0 96 36 96 99 0 64-35 99-97 99-61 0-95-36-95-99 0-62 34-99 96-99zm-1 164c35 0 45-28 45-65 0-40-10-65-43-65-34 0-45 26-45 65 0 36 10 65 43 65" id="bM"/><path fill="#1f2328" d="M128 0H69L1-190h53L99-40l48-150h52" id="bN"/><path fill="#1f2328" d="M185-48c-13 30-37 53-82 52C43 2 14-33 14-96s30-98 90-98c62 0 83 45 84 108H66c0 31 8 55 39 56 18 0 30-7 34-22zm-45-69c5-46-57-63-70-21-2 6-4 13-4 21h74" id="bO"/><path fill="#1f2328" d="M135-150c-39-12-60 13-60 57V0H25l-1-190h47c2 13-1 29 3 40 6-28 27-53 61-41v41" id="bP"/><g id="U"><use transform="matrix(0.1111111111111111,0,0,0.1111111111111111,0,0)" xlink:href="#bM"/><use transform="matrix(0.1111111111111111,0,0,0.1111111111111111,24.333333333333332,0)" xlink:href="#bN"/><use transform="matrix(0.1111111111111111,0,0,0.1111111111111111,46.55555555555556,0)" xlink:href="#bO"/><use transform="matrix(0.1111111111111111,0,0,0.1111111111111111,68.77777777777777,0)" xlink:href="#bP"/></g><path fill="#1f2328" d="M88-194c31-1 46 15 58 34l-1-101h50l1 261h-48c-2-10 0-23-3-31C134-8 116 4 84 4 32 4 16-41 15-95c0-56 19-97 73-99zm17 164c33 0 40-30 41-66 1-37-9-64-41-64s-38 30-39 65c0 43 13 65 39 65" id="bQ"/><g id="V"><use transform="matrix(0.1111111111111111,0,0,0.1111111111111111,0,0)" xlink:href="#bQ"/><use transform="matrix(0.1111111111111111,0,0,0.1111111111111111,24.333333333333332,0)" xlink:href="#bH"/><use transform="matrix(0.1111111111111111,0,0,0.1111111111111111,46.55555555555556,0)" xlink:href="#bK"/><use transform="matrix(0.1111111111111111,0,0,0.1111111111111111,59.77777777777777,0)" xlink:href="#bH"/><use transform="matrix(0.1111111111111111,0,0,0.1111111111111111,82,0)" xlink:href="#bB"/><use transform="matrix(0.1111111111111111,0,0,0.1111111111111111,104.22222222222223,0)" xlink:href="#bO"/><use transform="matrix(0.1111111111111111,0,0,0.1111111111111111,126.44444444444446,0)" xlink:href="#bK"/></g><path fill="#333" d="M190-63c-7 42-38 67-86 67-59 0-84-38-90-98-12-110 154-137 174-36l-49 2c-2-19-15-32-35-32-30 0-35 28-38 64-6 74 65 87 74 30" id="bR"/><use transform="matrix(0.04938271604938272,0,0,0.04938271604938272,0,0)" xlink:href="#bR" id="W"/><g id="X"><use transform="matrix(0.1111111111111111,0,0,0.1111111111111111,0,0)" xlink:href="#ap"/><use transform="matrix(0.1111111111111111,0,0,0.1111111111111111,28.777777777777775,0)" xlink:href="#aB"/><use transform="matrix(0.1111111111111111,0,0,0.1111111111111111,51,0)" xlink:href="#aC"/><use transform="matrix(0.1111111111111111,0,0,0.1111111111111111,64.22222222222223,0)" xlink:href="#aL"/><use transform="matrix(0.1111111111111111,0,0,0.1111111111111111,88.55555555555556,0)" xlink:href="#ay"/><use transform="matrix(0.1111111111111111,0,0,0.1111111111111111,104.11111111111111,0)" xlink:href="#aB"/><use transform="matrix(0.1111111111111111,0,0,0.1111111111111111,126.33333333333336,0)" xlink:href="#aI"/></g><g id="Y"><use transform="matrix(0.1111111111111111,0,0,0.1111111111111111,0,0)" xlink:href="#aj"/><use transform="matrix(0.1111111111111111,0,0,0.1111111111111111,24.333333333333332,0)" xlink:href="#aB"/><use transform="matrix(0.1111111111111111,0,0,0.1111111111111111,46.55555555555556,0)" xlink:href="#aK"/><use transform="matrix(0.1111111111111111,0,0,0.1111111111111111,70.88888888888889,0)" xlink:href="#aN"/><use transform="matrix(0.1111111111111111,0,0,0.1111111111111111,95.22222222222221,0)" xlink:href="#aL"/><use transform="matrix(0.1111111111111111,0,0,0.1111111111111111,119.55555555555554,0)" xlink:href="#aB"/><use transform="matrix(0.1111111111111111,0,0,0.1111111111111111,141.77777777777777,0)" xlink:href="#aN"/><use transform="matrix(0.1111111111111111,0,0,0.1111111111111111,166.11111111111111,0)" xlink:href="#ax"/></g><g id="Z"><use transform="matrix(0.1111111111111111,0,0,0.1111111111111111,0,0)" xlink:href="#aP"/><use transform="matrix(0.1111111111111111,0,0,0.1111111111111111,26.666666666666664,0)" xlink:href="#ay"/><use transform="matrix(0.1111111111111111,0,0,0.1111111111111111,42.22222222222222,0)" xlink:href="#aE"/><use transform="matrix(0.1111111111111111,0,0,0.1111111111111111,66.55555555555556,0)" xlink:href="#aF"/><use transform="matrix(0.1111111111111111,0,0,0.1111111111111111,88.77777777777777,0)" xlink:href="#ax"/><use transform="matrix(0.1111111111111111,0,0,0.1111111111111111,111,0)" xlink:href="#az"/><use transform="matrix(0.1111111111111111,0,0,0.1111111111111111,133.22222222222223,0)" xlink:href="#az"/><use transform="matrix(0.1111111111111111,0,0,0.1111111111111111,155.44444444444446,0)" xlink:href="#av"/><use transform="matrix(0.1111111111111111,0,0,0.1111111111111111,166.55555555555557,0)" xlink:href="#aK"/><use transform="matrix(0.1111111111111111,0,0,0.1111111111111111,190.8888888888889,0)" xlink:href="#aN"/></g><path d="M121-226c-27-7-43 5-38 36h38v33H83V0H34v-157H6v-33h28c-9-59 32-81 87-68v32" id="bS"/><g id="aa"><use transform="matrix(0.1111111111111111,0,0,0.1111111111111111,0,0)" xlink:href="#bS"/><use transform="matrix(0.1111111111111111,0,0,0.1111111111111111,13.222222222222221,0)" xlink:href="#av"/><use transform="matrix(0.1111111111111111,0,0,0.1111111111111111,24.333333333333332,0)" xlink:href="#aK"/><use transform="matrix(0.1111111111111111,0,0,0.1111111111111111,48.666666666666664,0)" xlink:href="#ax"/></g><g id="ab"><use transform="matrix(0.1111111111111111,0,0,0.1111111111111111,0,0)" xlink:href="#aC"/><use transform="matrix(0.1111111111111111,0,0,0.1111111111111111,13.222222222222221,0)" xlink:href="#aL"/><use transform="matrix(0.1111111111111111,0,0,0.1111111111111111,37.55555555555556,0)" xlink:href="#aK"/><use transform="matrix(0.1111111111111111,0,0,0.1111111111111111,61.888888888888886,0)" xlink:href="#ax"/><use transform="matrix(0.1111111111111111,0,0,0.1111111111111111,84.11111111111111,0)" xlink:href="#aG"/></g><path d="M182-130c37 4 62 22 62 59C244 23 116-4 24 0v-248c84 5 203-23 205 63 0 31-19 50-47 55zM76-148c40-3 101 13 101-30 0-44-60-28-101-31v61zm0 110c48-3 116 14 116-37 0-48-69-32-116-35v72" id="bT"/><path d="M125-100v72H85v-72H15v-39h70v-72h40v72h71v39h-71" id="bU"/><g id="ac"><use transform="matrix(0.1111111111111111,0,0,0.1111111111111111,0,0)" xlink:href="#bT"/><use transform="matrix(0.1111111111111111,0,0,0.1111111111111111,28.777777777777775,0)" xlink:href="#av"/><use transform="matrix(0.1111111111111111,0,0,0.1111111111111111,39.888888888888886,0)" xlink:href="#aE"/><use transform="matrix(0.1111111111111111,0,0,0.1111111111111111,64.22222222222221,0)" xlink:href="#bU"/><use transform="matrix(0.1111111111111111,0,0,0.1111111111111111,87.55555555555554,0)" xlink:href="#aQ"/><use transform="matrix(0.1111111111111111,0,0,0.1111111111111111,116.33333333333333,0)" xlink:href="#aI"/><use transform="matrix(0.1111111111111111,0,0,0.1111111111111111,127.44444444444444,0)" xlink:href="#av"/><use transform="matrix(0.1111111111111111,0,0,0.1111111111111111,138.55555555555554,0)" xlink:href="#aK"/><use transform="matrix(0.1111111111111111,0,0,0.1111111111111111,162.88888888888889,0)" xlink:href="#av"/><use transform="matrix(0.1111111111111111,0,0,0.1111111111111111,174,0)" xlink:href="#aF"/><use transform="matrix(0.1111111111111111,0,0,0.1111111111111111,196.22222222222223,0)" xlink:href="#aB"/><use transform="matrix(0.1111111111111111,0,0,0.1111111111111111,218.44444444444446,0)" xlink:href="#aI"/></g><g id="ad"><use transform="matrix(0.1111111111111111,0,0,0.1111111111111111,0,0)" xlink:href="#bT"/><use transform="matrix(0.1111111111111111,0,0,0.1111111111111111,28.777777777777775,0)" xlink:href="#an"/><use transform="matrix(0.1111111111111111,0,0,0.1111111111111111,55.44444444444444,0)" xlink:href="#as"/><use transform="matrix(0.1111111111111111,0,0,0.1111111111111111,84.22222222222221,0)" xlink:href="#ak"/></g><g id="ae"><use transform="matrix(0.1111111111111111,0,0,0.1111111111111111,0,0)" xlink:href="#aQ"/><use transform="matrix(0.1111111111111111,0,0,0.1111111111111111,28.777777777777775,0)" xlink:href="#aI"/><use transform="matrix(0.1111111111111111,0,0,0.1111111111111111,39.888888888888886,0)" xlink:href="#av"/><use transform="matrix(0.1111111111111111,0,0,0.1111111111111111,51,0)" xlink:href="#aK"/><use transform="matrix(0.1111111111111111,0,0,0.1111111111111111,75.33333333333333,0)" xlink:href="#av"/><use transform="matrix(0.1111111111111111,0,0,0.1111111111111111,86.44444444444444,0)" xlink:href="#aF"/><use transform="matrix(0.1111111111111111,0,0,0.1111111111111111,108.66666666666666,0)" xlink:href="#aB"/><use transform="matrix(0.1111111111111111,0,0,0.1111111111111111,130.88888888888889,0)" xlink:href="#aI"/><use transform="matrix(0.1111111111111111,0,0,0.1111111111111111,142,0)" xlink:href="#ap"/><use transform="matrix(0.1111111111111111,0,0,0.1111111111111111,170.77777777777777,0)" xlink:href="#aE"/><use transform="matrix(0.1111111111111111,0,0,0.1111111111111111,195.11111111111111,0)" xlink:href="#aC"/><use transform="matrix(0.1111111111111111,0,0,0.1111111111111111,208.33333333333334,0)" xlink:href="#ax"/><use transform="matrix(0.1111111111111111,0,0,0.1111111111111111,230.5555555555556,0)" xlink:href="#az"/><use transform="matrix(0.1111111111111111,0,0,0.1111111111111111,252.77777777777783,0)" xlink:href="#al"/><use transform="matrix(0.1111111111111111,0,0,0.1111111111111111,263.8888888888889,0)" xlink:href="#aQ"/><use transform="matrix(0.1111111111111111,0,0,0.1111111111111111,292.6666666666667,0)" xlink:href="#ai"/></g><path d="M128-127c34 4 56 21 59 58 7 91-148 94-172 28-4-9-6-17-7-26l51-5c1 24 16 35 40 36 23 0 39-12 38-36-1-31-31-36-65-34v-40c32 2 59-3 59-33 0-20-13-33-34-33s-33 13-35 32l-50-3c6-44 37-68 86-68 50 0 83 20 83 66 0 35-22 52-53 58" id="bV"/><path d="M114-157C55-157 80-60 75 0H25v-261h50l-1 109c12-26 28-41 61-42 86-1 58 113 63 194h-50c-7-57 23-157-34-157" id="bW"/><path d="M147 0L96-86 75-71V0H25v-261h50v150l67-79h53l-66 74L201 0h-54" id="bX"/><g id="af"><use transform="matrix(0.1111111111111111,0,0,0.1111111111111111,0,0)" xlink:href="#aw"/><use transform="matrix(0.1111111111111111,0,0,0.1111111111111111,35.55555555555556,0)" xlink:href="#av"/><use transform="matrix(0.1111111111111111,0,0,0.1111111111111111,46.66666666666667,0)" xlink:href="#aw"/><use transform="matrix(0.1111111111111111,0,0,0.1111111111111111,82.22222222222223,0)" xlink:href="#av"/><use transform="matrix(0.1111111111111111,0,0,0.1111111111111111,93.33333333333334,0)" xlink:href="#aF"/><use transform="matrix(0.1111111111111111,0,0,0.1111111111111111,115.55555555555557,0)" xlink:href="#bV"/><use transform="matrix(0.1111111111111111,0,0,0.1111111111111111,137.7777777777778,0)" xlink:href="#am"/><use transform="matrix(0.1111111111111111,0,0,0.1111111111111111,151.00000000000003,0)" xlink:href="#aS"/><use transform="matrix(0.1111111111111111,0,0,0.1111111111111111,175.33333333333337,0)" xlink:href="#ax"/><use transform="matrix(0.1111111111111111,0,0,0.1111111111111111,197.5555555555556,0)" xlink:href="#aK"/><use transform="matrix(0.1111111111111111,0,0,0.1111111111111111,221.88888888888894,0)" xlink:href="#aF"/><use transform="matrix(0.1111111111111111,0,0,0.1111111111111111,244.11111111111114,0)" xlink:href="#bW"/><use transform="matrix(0.1111111111111111,0,0,0.1111111111111111,268.4444444444445,0)" xlink:href="#aw"/><use transform="matrix(0.1111111111111111,0,0,0.1111111111111111,304.00000000000006,0)" xlink:href="#aB"/><use transform="matrix(0.1111111111111111,0,0,0.1111111111111111,326.2222222222223,0)" xlink:href="#ay"/><use transform="matrix(0.1111111111111111,0,0,0.1111111111111111,341.7777777777778,0)" xlink:href="#bX"/><use transform="matrix(0.1111111111111111,0,0,0.1111111111111111,364.00000000000006,0)" xlink:href="#az"/></g><g id="ag"><use transform="matrix(0.1111111111111111,0,0,0.1111111111111111,0,0)" xlink:href="#aP"/><use transform="matrix(0.1111111111111111,0,0,0.1111111111111111,26.666666666666664,0)" xlink:href="#ay"/><use transform="matrix(0.1111111111111111,0,0,0.1111111111111111,42.22222222222222,0)" xlink:href="#ax"/><use transform="matrix(0.1111111111111111,0,0,0.1111111111111111,64.44444444444444,0)" xlink:href="#aG"/><use transform="matrix(0.1111111111111111,0,0,0.1111111111111111,88.77777777777777,0)" xlink:href="#av"/><use transform="matrix(0.1111111111111111,0,0,0.1111111111111111,99.88888888888889,0)" xlink:href="#aF"/><use transform="matrix(0.1111111111111111,0,0,0.1111111111111111,122.1111111111111,0)" xlink:href="#aC"/><use transform="matrix(0.1111111111111111,0,0,0.1111111111111111,135.33333333333334,0)" xlink:href="#av"/><use transform="matrix(0.1111111111111111,0,0,0.1111111111111111,146.44444444444446,0)" xlink:href="#aE"/><use transform="matrix(0.1111111111111111,0,0,0.1111111111111111,170.7777777777778,0)" xlink:href="#aK"/></g></defs></g></svg>